Latin-Mizra-Regular.ufo
<glyph name="exclam" format="1">
  <advance width="239"/>
  <unicode hex="0021"/>
  <outline>
    <contour>
      <point x="90" y="157" type="line"/>
      <point x="112" y="179"/>
      <point x="134" y="196"/>
      <point x="156" y="212" type="curve"/>
      <point x="156" y="347"/>
      <point x="161" y="488"/>
      <point x="168" y="547" type="curve"/>
      <point x="128" y="547"/>
      <point x="94" y="541"/>
      <point x="58" y="529" type="curve"/>
      <point x="70" y="503"/>
      <point x="77" y="433"/>
      <point x="77" y="349" type="curve" smooth="yes"/>
      <point x="77" y="157" type="line"/>
    </contour>
    <contour>
      <point x="147" y="7"/>
      <point x="170" y="31"/>
      <point x="192" y="57" type="curve"/>
      <point x="165" y="80"/>
      <point x="142" y="103"/>
      <point x="119" y="130" type="curve"/>
      <point x="93" y="108"/>
      <point x="69" y="85"/>
      <point x="47" y="57" type="curve"/>
      <point x="74" y="35"/>
      <point x="97" y="12"/>
      <point x="119" y="-15" type="curve"/>
    </contour>
  </outline>
</glyph>
<glyph name="quotedbl" format="1">
  <advance width="285"/>
  <unicode hex="0022"/>
  <outline>
    <contour>
      <point x="241" y="319" type="line"/>
      <point x="241" y="408"/>
      <point x="242" y="474"/>
      <point x="253" y="549" type="curve"/>
      <point x="222" y="549"/>
      <point x="198" y="545"/>
      <point x="172" y="538" type="curve"/>
      <point x="172" y="374" type="line"/>
      <point x="189" y="358"/>
      <point x="206" y="340"/>
      <point x="222" y="319" type="curve"/>
    </contour>
    <contour>
      <point x="111" y="319" type="line"/>
      <point x="111" y="408"/>
      <point x="112" y="474"/>
      <point x="123" y="549" type="curve"/>
      <point x="92" y="549"/>
      <point x="69" y="545"/>
      <point x="42" y="538" type="curve"/>
      <point x="42" y="374" type="line"/>
      <point x="59" y="358"/>
      <point x="76" y="340"/>
      <point x="92" y="319" type="curve"/>
    </contour>
  </outline>
</glyph>
<glyph name="dollar" format="1">
  <advance width="448"/>
  <unicode hex="0024"/>
  <outline>
    <contour>
      <point x="236" y="-86"/>
      <point x="246" y="-85"/>
      <point x="257" y="-83" type="curve"/>
      <point x="254" y="-65"/>
      <point x="252" y="-34"/>
      <point x="250" y="11" type="curve"/>
      <point x="357" y="20"/>
      <point x="410" y="68"/>
      <point x="410" y="147" type="curve" smooth="yes"/>
      <point x="410" y="299"/>
      <point x="139" y="294"/>
      <point x="139" y="403" type="curve" smooth="yes"/>
      <point x="139" y="438"/>
      <point x="175" y="461"/>
      <point x="199" y="465" type="curve"/>
      <point x="238" y="465"/>
      <point x="304" y="434"/>
      <point x="359" y="395" type="curve"/>
      <point x="373" y="416"/>
      <point x="386" y="460"/>
      <point x="386" y="489" type="curve"/>
      <point x="348" y="504"/>
      <point x="302" y="512"/>
      <point x="251" y="513" type="curve"/>
      <point x="251" y="550"/>
      <point x="252" y="582"/>
      <point x="254" y="609" type="curve"/>
      <point x="244" y="612"/>
      <point x="231" y="614"/>
      <point x="222" y="614" type="curve" smooth="yes"/>
      <point x="212" y="614"/>
      <point x="200" y="611"/>
      <point x="192" y="609" type="curve"/>
      <point x="194" y="589"/>
      <point x="196" y="558"/>
      <point x="197" y="510" type="curve"/>
      <point x="102" y="500"/>
      <point x="44" y="454"/>
      <point x="44" y="393" type="curve" smooth="yes"/>
      <point x="44" y="237"/>
      <point x="316" y="237"/>
      <point x="316" y="135" type="curve" smooth="yes"/>
      <point x="316" y="90"/>
      <point x="277" y="64"/>
      <point x="204" y="64" type="curve" smooth="yes"/>
      <point x="142" y="64"/>
      <point x="86" y="83"/>
      <point x="54" y="115" type="curve"/>
      <point x="42" y="93"/>
      <point x="37" y="74"/>
      <point x="37" y="45" type="curve"/>
      <point x="79" y="25"/>
      <point x="134" y="11"/>
      <point x="196" y="9" type="curve"/>
      <point x="196" y="-26"/>
      <point x="196" y="-57"/>
      <point x="195" y="-83" type="curve"/>
      <point x="207" y="-85"/>
      <point x="217" y="-86"/>
      <point x="226" y="-86" type="curve" smooth="yes"/>
    </contour>
    <contour>
      <point x="213" y="527" type="move" name="top"/>
    </contour>
    <contour>
      <point x="213" y="0" type="move" name="bottom"/>
    </contour>
  </outline>
</glyph>
<glyph name="ampersand" format="1">
  <advance width="539"/>
  <unicode hex="0026"/>
  <outline>
    <contour>
      <point x="257" y="-11"/>
      <point x="310" y="16"/>
      <point x="350" y="56" type="curve"/>
      <point x="406" y="-6" type="line"/>
      <point x="458" y="-6"/>
      <point x="494" y="0"/>
      <point x="528" y="15" type="curve"/>
      <point x="490" y="42"/>
      <point x="447" y="83"/>
      <point x="405" y="128" type="curve"/>
      <point x="440" y="184"/>
      <point x="467" y="246"/>
      <point x="499" y="294" type="curve"/>
      <point x="463" y="294"/>
      <point x="437" y="292"/>
      <point x="405" y="288" type="curve"/>
      <point x="402" y="245"/>
      <point x="392" y="201"/>
      <point x="374" y="162" type="curve"/>
      <point x="285" y="261"/>
      <point x="208" y="370"/>
      <point x="208" y="409" type="curve" smooth="yes"/>
      <point x="208" y="458"/>
      <point x="243" y="492"/>
      <point x="297" y="492" type="curve"/>
      <point x="349" y="474"/>
      <point x="384" y="450"/>
      <point x="425" y="405" type="curve"/>
      <point x="439" y="428"/>
      <point x="451" y="471"/>
      <point x="451" y="499" type="curve"/>
      <point x="412" y="521"/>
      <point x="363" y="533"/>
      <point x="308" y="533" type="curve" smooth="yes"/>
      <point x="199" y="533"/>
      <point x="119" y="476"/>
      <point x="119" y="400" type="curve" smooth="yes"/>
      <point x="119" y="365"/>
      <point x="132" y="328"/>
      <point x="169" y="276" type="curve"/>
      <point x="84" y="246"/>
      <point x="32" y="187"/>
      <point x="32" y="117" type="curve" smooth="yes"/>
      <point x="32" y="41"/>
      <point x="93" y="-11"/>
      <point x="182" y="-11" type="curve" smooth="yes"/>
    </contour>
    <contour>
      <point x="166" y="36"/>
      <point x="127" y="73"/>
      <point x="127" y="127" type="curve" smooth="yes"/>
      <point x="127" y="178"/>
      <point x="149" y="220"/>
      <point x="188" y="247" type="curve"/>
      <point x="220" y="204"/>
      <point x="264" y="153"/>
      <point x="325" y="84" type="curve"/>
      <point x="297" y="55"/>
      <point x="263" y="36"/>
      <point x="223" y="36" type="curve" smooth="yes"/>
    </contour>
  </outline>
</glyph>
<glyph name="asterisk" format="1">
  <advance width="405"/>
  <unicode hex="002A"/>
  <outline>
    <contour>
      <point x="210" y="290"/>
      <point x="236" y="295"/>
      <point x="265" y="302" type="curve"/>
      <point x="266" y="344"/>
      <point x="251" y="389"/>
      <point x="220" y="432" type="curve"/>
      <point x="273" y="433"/>
      <point x="317" y="429"/>
      <point x="359" y="420" type="curve"/>
      <point x="359" y="451"/>
      <point x="352" y="479"/>
      <point x="347" y="508" type="curve"/>
      <point x="304" y="509"/>
      <point x="260" y="494"/>
      <point x="216" y="464" type="curve"/>
      <point x="216" y="514"/>
      <point x="218" y="557"/>
      <point x="229" y="601" type="curve"/>
      <point x="193" y="601"/>
      <point x="168" y="596"/>
      <point x="138" y="588" type="curve"/>
      <point x="137" y="544"/>
      <point x="152" y="501"/>
      <point x="184" y="459" type="curve"/>
      <point x="134" y="458"/>
      <point x="91" y="461"/>
      <point x="47" y="471" type="curve"/>
      <point x="47" y="437"/>
      <point x="52" y="411"/>
      <point x="60" y="381" type="curve"/>
      <point x="102" y="380"/>
      <point x="145" y="396"/>
      <point x="189" y="426" type="curve"/>
      <point x="189" y="374"/>
      <point x="186" y="332"/>
      <point x="177" y="290" type="curve"/>
    </contour>
  </outline>
</glyph>
<glyph name="zero" format="1">
  <advance width="581"/>
  <unicode hex="0030"/>
  <outline>
    <contour>
      <point x="432" y="-11"/>
      <point x="545" y="108"/>
      <point x="545" y="278" type="curve" smooth="yes"/>
      <point x="545" y="431"/>
      <point x="453" y="533"/>
      <point x="317" y="533" type="curve" smooth="yes"/>
      <point x="152" y="533"/>
      <point x="37" y="416"/>
      <point x="37" y="250" type="curve" smooth="yes"/>
      <point x="37" y="93"/>
      <point x="131" y="-11"/>
      <point x="273" y="-11" type="curve" smooth="yes"/>
    </contour>
    <contour>
      <point x="193" y="63"/>
      <point x="130" y="147"/>
      <point x="130" y="273" type="curve" smooth="yes"/>
      <point x="130" y="394"/>
      <point x="203" y="481"/>
      <point x="304" y="481" type="curve"/>
      <point x="396" y="463"/>
      <point x="452" y="382"/>
      <point x="452" y="267" type="curve" smooth="yes"/>
      <point x="452" y="142"/>
      <point x="387" y="63"/>
      <point x="287" y="63" type="curve" smooth="yes"/>
    </contour>
  </outline>
</glyph>
<glyph name="one" format="1">
  <advance width="340"/>
  <unicode hex="0031"/>
  <outline>
    <contour>
      <point x="239" y="-6"/>
      <point x="259" y="-4"/>
      <point x="277" y="0" type="curve"/>
      <point x="266" y="30"/>
      <point x="261" y="108"/>
      <point x="261" y="227" type="curve" smooth="yes"/>
      <point x="261" y="332"/>
      <point x="266" y="462"/>
      <point x="272" y="527" type="curve"/>
      <point x="250" y="531"/>
      <point x="231" y="533"/>
      <point x="213" y="533" type="curve"/>
      <point x="196" y="516"/>
      <point x="149" y="481"/>
      <point x="106" y="456" type="curve" smooth="yes"/>
      <point x="76" y="439"/>
      <point x="45" y="422"/>
      <point x="11" y="406" type="curve"/>
      <point x="17" y="378"/>
      <point x="27" y="355"/>
      <point x="44" y="334" type="curve"/>
      <point x="173" y="415" type="line"/>
      <point x="175" y="383"/>
      <point x="175" y="346"/>
      <point x="175" y="302" type="curve" smooth="yes"/>
      <point x="175" y="196"/>
      <point x="170" y="65"/>
      <point x="164" y="0" type="curve"/>
      <point x="186" y="-4"/>
      <point x="204" y="-6"/>
      <point x="221" y="-6" type="curve" smooth="yes"/>
    </contour>
  </outline>
</glyph>
<glyph name="two" format="1">
  <advance width="504"/>
  <unicode hex="0032"/>
  <outline>
    <contour>
      <point x="449" y="11"/>
      <point x="458" y="59"/>
      <point x="458" y="96" type="curve"/>
      <point x="419" y="80"/>
      <point x="352" y="70"/>
      <point x="287" y="70" type="curve" smooth="yes"/>
      <point x="242" y="70"/>
      <point x="190" y="74"/>
      <point x="158" y="79" type="curve"/>
      <point x="344" y="229"/>
      <point x="425" y="334"/>
      <point x="425" y="415" type="curve" smooth="yes"/>
      <point x="425" y="493"/>
      <point x="364" y="534"/>
      <point x="247" y="534" type="curve" smooth="yes"/>
      <point x="177" y="534"/>
      <point x="91" y="519"/>
      <point x="61" y="499" type="curve"/>
      <point x="61" y="470"/>
      <point x="74" y="426"/>
      <point x="88" y="405" type="curve"/>
      <point x="149" y="449"/>
      <point x="215" y="480"/>
      <point x="253" y="485" type="curve"/>
      <point x="303" y="477"/>
      <point x="328" y="449"/>
      <point x="328" y="403" type="curve" smooth="yes"/>
      <point x="328" y="311"/>
      <point x="232" y="191"/>
      <point x="47" y="36" type="curve"/>
      <point x="47" y="0" type="line"/>
      <point x="141" y="5"/>
      <point x="398" y="2"/>
      <point x="436" y="-5" type="curve"/>
    </contour>
  </outline>
</glyph>
<glyph name="four" format="1">
  <advance width="481"/>
  <unicode hex="0034"/>
  <outline>
    <contour>
      <point x="358" y="-6"/>
      <point x="377" y="-4"/>
      <point x="396" y="0" type="curve"/>
      <point x="385" y="15"/>
      <point x="380" y="57"/>
      <point x="379" y="122" type="curve"/>
      <point x="431" y="116" type="line"/>
      <point x="442" y="143"/>
      <point x="449" y="180"/>
      <point x="449" y="207" type="curve"/>
      <point x="432" y="200"/>
      <point x="411" y="195"/>
      <point x="381" y="192" type="curve"/>
      <point x="381" y="250"/>
      <point x="386" y="308"/>
      <point x="391" y="342" type="curve"/>
      <point x="369" y="346"/>
      <point x="351" y="348"/>
      <point x="334" y="348" type="curve" smooth="yes"/>
      <point x="316" y="348"/>
      <point x="296" y="346"/>
      <point x="278" y="342" type="curve"/>
      <point x="288" y="327"/>
      <point x="295" y="275"/>
      <point x="294" y="189" type="curve"/>
      <point x="227" y="189"/>
      <point x="157" y="190"/>
      <point x="99" y="191" type="curve"/>
      <point x="203" y="361"/>
      <point x="300" y="470"/>
      <point x="352" y="515" type="curve"/>
      <point x="320" y="539"/>
      <point x="286" y="546"/>
      <point x="243" y="546" type="curve"/>
      <point x="199" y="479"/>
      <point x="68" y="261"/>
      <point x="52" y="232" type="curve" smooth="yes"/>
      <point x="31" y="195"/>
      <point x="22" y="174"/>
      <point x="22" y="142" type="curve" smooth="yes"/>
      <point x="22" y="129"/>
      <point x="28" y="115"/>
      <point x="42" y="107" type="curve"/>
      <point x="83" y="123"/>
      <point x="138" y="126"/>
      <point x="232" y="126" type="curve" smooth="yes"/>
      <point x="292" y="126" type="line"/>
      <point x="291" y="77"/>
      <point x="287" y="30"/>
      <point x="283" y="0" type="curve"/>
      <point x="305" y="-4"/>
      <point x="323" y="-6"/>
      <point x="340" y="-6" type="curve" smooth="yes"/>
    </contour>
  </outline>
</glyph>
<glyph name="five" format="1">
  <advance width="480"/>
  <unicode hex="0035"/>
  <outline>
    <contour>
      <point x="363" y="-11"/>
      <point x="439" y="47"/>
      <point x="439" y="157" type="curve" smooth="yes"/>
      <point x="439" y="256"/>
      <point x="370" y="324"/>
      <point x="266" y="324" type="curve" smooth="yes"/>
      <point x="216" y="324"/>
      <point x="170" y="310"/>
      <point x="128" y="283" type="curve"/>
      <point x="139" y="441" type="line"/>
      <point x="228" y="443"/>
      <point x="252" y="444"/>
      <point x="293" y="444" type="curve" smooth="yes"/>
      <point x="350" y="444"/>
      <point x="378" y="439"/>
      <point x="400" y="426" type="curve"/>
      <point x="411" y="455"/>
      <point x="418" y="497"/>
      <point x="418" y="527" type="curve"/>
      <point x="389" y="520"/>
      <point x="317" y="516"/>
      <point x="236" y="516" type="curve" smooth="yes"/>
      <point x="166" y="516"/>
      <point x="128" y="519"/>
      <point x="100" y="527" type="curve"/>
      <point x="79" y="242" type="line"/>
      <point x="79" y="238"/>
      <point x="102" y="231"/>
      <point x="124" y="228" type="curve"/>
      <point x="175" y="260"/>
      <point x="226" y="279"/>
      <point x="259" y="279" type="curve"/>
      <point x="315" y="253"/>
      <point x="344" y="212"/>
      <point x="344" y="157" type="curve" smooth="yes"/>
      <point x="344" y="84"/>
      <point x="295" y="44"/>
      <point x="213" y="44" type="curve" smooth="yes"/>
      <point x="149" y="44"/>
      <point x="91" y="67"/>
      <point x="59" y="105" type="curve"/>
      <point x="47" y="81"/>
      <point x="42" y="62"/>
      <point x="42" y="35" type="curve"/>
      <point x="91" y="5"/>
      <point x="152" y="-11"/>
      <point x="218" y="-11" type="curve" smooth="yes"/>
    </contour>
  </outline>
</glyph>
<glyph name="eight" format="1">
  <advance width="516"/>
  <unicode hex="0038"/>
  <outline>
    <contour>
      <point x="376" y="-11"/>
      <point x="475" y="50"/>
      <point x="475" y="143" type="curve" smooth="yes"/>
      <point x="475" y="222"/>
      <point x="419" y="257"/>
      <point x="352" y="281" type="curve"/>
      <point x="419" y="308"/>
      <point x="458" y="352"/>
      <point x="458" y="402" type="curve" smooth="yes"/>
      <point x="458" y="481"/>
      <point x="386" y="533"/>
      <point x="279" y="533" type="curve" smooth="yes"/>
      <point x="150" y="533"/>
      <point x="59" y="474"/>
      <point x="59" y="390" type="curve" smooth="yes"/>
      <point x="59" y="316"/>
      <point x="105" y="278"/>
      <point x="164" y="252" type="curve"/>
      <point x="88" y="222"/>
      <point x="42" y="174"/>
      <point x="42" y="117" type="curve" smooth="yes"/>
      <point x="42" y="40"/>
      <point x="123" y="-11"/>
      <point x="242" y="-11" type="curve" smooth="yes"/>
    </contour>
    <contour>
      <point x="185" y="36"/>
      <point x="137" y="74"/>
      <point x="137" y="128" type="curve" smooth="yes"/>
      <point x="137" y="173"/>
      <point x="165" y="210"/>
      <point x="214" y="233" type="curve"/>
      <point x="296" y="206"/>
      <point x="379" y="189"/>
      <point x="379" y="126" type="curve" smooth="yes"/>
      <point x="379" y="71"/>
      <point x="332" y="36"/>
      <point x="255" y="36" type="curve" smooth="yes"/>
    </contour>
    <contour>
      <point x="222" y="323"/>
      <point x="148" y="343"/>
      <point x="148" y="409" type="curve" smooth="yes"/>
      <point x="148" y="461"/>
      <point x="199" y="492"/>
      <point x="268" y="492" type="curve"/>
      <point x="331" y="482"/>
      <point x="368" y="446"/>
      <point x="368" y="396" type="curve" smooth="yes"/>
      <point x="368" y="354"/>
      <point x="343" y="321"/>
      <point x="299" y="299" type="curve"/>
    </contour>
  </outline>
</glyph>
<glyph name="nine" format="1">
  <advance width="491"/>
  <unicode hex="0039"/>
  <outline>
    <contour>
      <point x="367" y="-11"/>
      <point x="449" y="89"/>
      <point x="449" y="279" type="curve" smooth="yes"/>
      <point x="449" y="431"/>
      <point x="364" y="533"/>
      <point x="239" y="533" type="curve" smooth="yes"/>
      <point x="123" y="533"/>
      <point x="43" y="457"/>
      <point x="43" y="348" type="curve" smooth="yes"/>
      <point x="43" y="241"/>
      <point x="109" y="170"/>
      <point x="206" y="170" type="curve" smooth="yes"/>
      <point x="257" y="170"/>
      <point x="307" y="186"/>
      <point x="352" y="215" type="curve"/>
      <point x="343" y="121"/>
      <point x="298" y="43"/>
      <point x="201" y="43" type="curve" smooth="yes"/>
      <point x="142" y="43"/>
      <point x="89" y="67"/>
      <point x="59" y="105" type="curve"/>
      <point x="47" y="81"/>
      <point x="42" y="62"/>
      <point x="42" y="35" type="curve"/>
      <point x="88" y="5"/>
      <point x="147" y="-11"/>
      <point x="210" y="-11" type="curve" smooth="yes"/>
    </contour>
    <contour>
      <point x="184" y="226"/>
      <point x="138" y="276"/>
      <point x="138" y="356" type="curve" smooth="yes"/>
      <point x="138" y="426"/>
      <point x="177" y="472"/>
      <point x="238" y="472" type="curve" smooth="yes"/>
      <point x="308" y="472"/>
      <point x="350" y="399"/>
      <point x="354" y="272" type="curve"/>
      <point x="325" y="251"/>
      <point x="292" y="236"/>
      <point x="256" y="226" type="curve"/>
    </contour>
  </outline>
</glyph>
<glyph name="greater" format="1">
  <advance width="533"/>
  <unicode hex="003E"/>
  <outline>
    <contour>
      <point x="197" y="129"/>
      <point x="365" y="197"/>
      <point x="457" y="229" type="curve"/>
      <point x="459" y="241"/>
      <point x="460" y="254"/>
      <point x="460" y="266" type="curve" smooth="yes"/>
      <point x="460" y="278"/>
      <point x="459" y="290"/>
      <point x="457" y="303" type="curve"/>
      <point x="365" y="334"/>
      <point x="197" y="403"/>
      <point x="106" y="445" type="curve"/>
      <point x="89" y="423"/>
      <point x="81" y="401"/>
      <point x="77" y="375" type="curve"/>
      <point x="364" y="266" type="line"/>
      <point x="77" y="156" type="line"/>
      <point x="80" y="134"/>
      <point x="88" y="108"/>
      <point x="106" y="86" type="curve"/>
    </contour>
  </outline>
</glyph>
<glyph name="at" format="1">
  <advance width="832"/>
  <unicode hex="0040"/>
  <outline>
    <contour>
      <point x="430" y="-124"/>
      <point x="474" y="-113"/>
      <point x="510" y="-94" type="curve"/>
      <point x="510" y="-76"/>
      <point x="506" y="-63"/>
      <point x="494" y="-47" type="curve"/>
      <point x="470" y="-65"/>
      <point x="426" y="-76"/>
      <point x="384" y="-76" type="curve" smooth="yes"/>
      <point x="218" y="-76"/>
      <point x="127" y="48"/>
      <point x="127" y="214" type="curve" smooth="yes"/>
      <point x="127" y="389"/>
      <point x="257" y="515"/>
      <point x="440" y="515" type="curve"/>
      <point x="607" y="490"/>
      <point x="706" y="373"/>
      <point x="706" y="206" type="curve" smooth="yes"/>
      <point x="706" y="90"/>
      <point x="655" y="41"/>
      <point x="616" y="41" type="curve" smooth="yes"/>
      <point x="581" y="41"/>
      <point x="553" y="59"/>
      <point x="553" y="130" type="curve" smooth="yes"/>
      <point x="553" y="176"/>
      <point x="562" y="233"/>
      <point x="562" y="293" type="curve" smooth="yes"/>
      <point x="562" y="364"/>
      <point x="517" y="403"/>
      <point x="439" y="403" type="curve" smooth="yes"/>
      <point x="380" y="403"/>
      <point x="320" y="370"/>
      <point x="287" y="321" type="curve"/>
      <point x="294" y="296" type="line"/>
      <point x="324" y="319"/>
      <point x="365" y="333"/>
      <point x="403" y="333" type="curve" smooth="yes"/>
      <point x="459" y="333"/>
      <point x="481" y="306"/>
      <point x="480" y="241" type="curve"/>
      <point x="340" y="234"/>
      <point x="270" y="197"/>
      <point x="270" y="126" type="curve" smooth="yes"/>
      <point x="270" y="81"/>
      <point x="303" y="49"/>
      <point x="348" y="49" type="curve" smooth="yes"/>
      <point x="387" y="49"/>
      <point x="435" y="67"/>
      <point x="478" y="94" type="curve"/>
      <point x="491" y="22"/>
      <point x="544" y="-7"/>
      <point x="600" y="-7" type="curve" smooth="yes"/>
      <point x="682" y="-7"/>
      <point x="776" y="67"/>
      <point x="776" y="251" type="curve" smooth="yes"/>
      <point x="776" y="458"/>
      <point x="642" y="595"/>
      <point x="441" y="595" type="curve" smooth="yes"/>
      <point x="216" y="595"/>
      <point x="57" y="438"/>
      <point x="57" y="212" type="curve" smooth="yes"/>
      <point x="57" y="11"/>
      <point x="187" y="-124"/>
      <point x="381" y="-124" type="curve" smooth="yes"/>
    </contour>
    <contour>
      <point x="370" y="103"/>
      <point x="357" y="122"/>
      <point x="357" y="141" type="curve" smooth="yes"/>
      <point x="357" y="183"/>
      <point x="401" y="208"/>
      <point x="479" y="212" type="curve"/>
      <point x="475" y="179"/>
      <point x="474" y="150"/>
      <point x="474" y="126" type="curve"/>
      <point x="448" y="109"/>
      <point x="414" y="96"/>
      <point x="387" y="93" type="curve"/>
    </contour>
  </outline>
</glyph>
<glyph name="B" format="1">
  <advance width="520"/>
  <unicode hex="0042"/>
  <outline>
    <contour>
      <point x="400" y="-12"/>
      <point x="478" y="44"/>
      <point x="478" y="144" type="curve" smooth="yes"/>
      <point x="478" y="204"/>
      <point x="437" y="252"/>
      <point x="370" y="275" type="curve"/>
      <point x="421" y="300"/>
      <point x="453" y="341"/>
      <point x="453" y="391" type="curve" smooth="yes"/>
      <point x="453" y="482"/>
      <point x="383" y="532"/>
      <point x="257" y="532" type="curve" smooth="yes"/>
      <point x="186" y="532"/>
      <point x="109" y="521"/>
      <point x="62" y="505" type="curve"/>
      <point x="73" y="480"/>
      <point x="78" y="420"/>
      <point x="78" y="312" type="curve" smooth="yes"/>
      <point x="78" y="203"/>
      <point x="74" y="73"/>
      <point x="69" y="15" type="curve"/>
      <point x="115" y="-1"/>
      <point x="191" y="-12"/>
      <point x="261" y="-12" type="curve" smooth="yes"/>
    </contour>
    <contour>
      <point x="223" y="33"/>
      <point x="195" y="37"/>
      <point x="170" y="46" type="curve"/>
      <point x="166" y="85"/>
      <point x="164" y="144"/>
      <point x="164" y="224" type="curve"/>
      <point x="217" y="240"/>
      <point x="272" y="252"/>
      <point x="303" y="252" type="curve"/>
      <point x="355" y="232"/>
      <point x="384" y="193"/>
      <point x="384" y="144" type="curve" smooth="yes"/>
      <point x="384" y="70"/>
      <point x="339" y="33"/>
      <point x="251" y="33" type="curve" smooth="yes"/>
    </contour>
    <contour>
      <point x="166" y="341"/>
      <point x="168" y="405"/>
      <point x="171" y="457" type="curve"/>
      <point x="195" y="464"/>
      <point x="220" y="467"/>
      <point x="247" y="467" type="curve" smooth="yes"/>
      <point x="321" y="467"/>
      <point x="359" y="438"/>
      <point x="359" y="380" type="curve" smooth="yes"/>
      <point x="359" y="346"/>
      <point x="337" y="316"/>
      <point x="299" y="290" type="curve"/>
      <point x="258" y="295"/>
      <point x="203" y="292"/>
      <point x="165" y="282" type="curve"/>
    </contour>
  </outline>
</glyph>
<glyph name="D" format="1">
  <advance width="573"/>
  <unicode hex="0044"/>
  <outline>
    <contour>
      <point x="410" y="-6"/>
      <point x="530" y="105"/>
      <point x="530" y="266" type="curve" smooth="yes"/>
      <point x="530" y="437"/>
      <point x="432" y="532"/>
      <point x="256" y="532" type="curve" smooth="yes"/>
      <point x="182" y="532"/>
      <point x="104" y="521"/>
      <point x="62" y="505" type="curve"/>
      <point x="73" y="478"/>
      <point x="78" y="408"/>
      <point x="78" y="300" type="curve" smooth="yes"/>
      <point x="78" y="199"/>
      <point x="73" y="73"/>
      <point x="67" y="10" type="curve"/>
      <point x="113" y="0"/>
      <point x="179" y="-6"/>
      <point x="236" y="-6" type="curve" smooth="yes"/>
    </contour>
    <contour>
      <point x="257" y="45"/>
      <point x="214" y="53"/>
      <point x="169" y="65" type="curve"/>
      <point x="166" y="104"/>
      <point x="164" y="158"/>
      <point x="164" y="227" type="curve" smooth="yes"/>
      <point x="164" y="303"/>
      <point x="167" y="394"/>
      <point x="171" y="458" type="curve"/>
      <point x="192" y="464"/>
      <point x="214" y="467"/>
      <point x="236" y="467" type="curve" smooth="yes"/>
      <point x="362" y="467"/>
      <point x="436" y="402"/>
      <point x="436" y="248" type="curve" smooth="yes"/>
      <point x="436" y="153"/>
      <point x="368" y="58"/>
      <point x="284" y="45" type="curve"/>
    </contour>
    <contour>
      <point x="179" y="264" type="move" name="center"/>
    </contour>
    <contour>
      <point x="287" y="0" type="move" name="bottom"/>
    </contour>
    <contour>
      <point x="287" y="527" type="move" name="top"/>
    </contour>
  </outline>
</glyph>
<glyph name="F" format="1">
  <advance width="430"/>
  <unicode hex="0046"/>
  <outline>
    <contour>
      <point x="142" y="-6"/>
      <point x="161" y="-4"/>
      <point x="179" y="0" type="curve"/>
      <point x="168" y="29"/>
      <point x="163" y="107"/>
      <point x="163" y="234" type="curve"/>
      <point x="216" y="237"/>
      <point x="302" y="231"/>
      <point x="357" y="228" type="curve"/>
      <point x="359" y="239"/>
      <point x="361" y="254"/>
      <point x="361" y="266" type="curve" smooth="yes"/>
      <point x="361" y="279"/>
      <point x="359" y="293"/>
      <point x="357" y="303" type="curve"/>
      <point x="325" y="297"/>
      <point x="301" y="292"/>
      <point x="236" y="292" type="curve" smooth="yes"/>
      <point x="215" y="292"/>
      <point x="188" y="294"/>
      <point x="165" y="295" type="curve"/>
      <point x="166" y="347"/>
      <point x="168" y="397"/>
      <point x="170" y="445" type="curve"/>
      <point x="198" y="450"/>
      <point x="234" y="453"/>
      <point x="268" y="453" type="curve" smooth="yes"/>
      <point x="310" y="453"/>
      <point x="357" y="444"/>
      <point x="388" y="426" type="curve"/>
      <point x="401" y="443"/>
      <point x="409" y="495"/>
      <point x="409" y="527" type="curve"/>
      <point x="360" y="522"/>
      <point x="288" y="520"/>
      <point x="223" y="520" type="curve" smooth="yes"/>
      <point x="161" y="520"/>
      <point x="98" y="522"/>
      <point x="62" y="527" type="curve"/>
      <point x="74" y="478"/>
      <point x="78" y="400"/>
      <point x="78" y="268" type="curve" smooth="yes"/>
      <point x="78" y="174"/>
      <point x="73" y="58"/>
      <point x="67" y="0" type="curve"/>
      <point x="89" y="-4"/>
      <point x="107" y="-6"/>
      <point x="124" y="-6" type="curve" smooth="yes"/>
    </contour>
  </outline>
</glyph>
<glyph name="H" format="1">
  <advance width="551"/>
  <unicode hex="0048"/>
  <outline>
    <contour>
      <point x="142" y="-6"/>
      <point x="161" y="-4"/>
      <point x="179" y="0" type="curve"/>
      <point x="169" y="29"/>
      <point x="163" y="106"/>
      <point x="163" y="233" type="curve"/>
      <point x="188" y="234"/>
      <point x="220" y="235"/>
      <point x="257" y="235" type="curve" smooth="yes"/>
      <point x="298" y="235"/>
      <point x="345" y="234"/>
      <point x="385" y="232" type="curve"/>
      <point x="384" y="144"/>
      <point x="381" y="51"/>
      <point x="375" y="0" type="curve"/>
      <point x="397" y="-4"/>
      <point x="415" y="-6"/>
      <point x="432" y="-6" type="curve" smooth="yes"/>
      <point x="450" y="-6"/>
      <point x="470" y="-4"/>
      <point x="488" y="0" type="curve"/>
      <point x="476" y="30"/>
      <point x="472" y="106"/>
      <point x="472" y="225" type="curve" smooth="yes"/>
      <point x="472" y="331"/>
      <point x="477" y="462"/>
      <point x="483" y="527" type="curve"/>
      <point x="461" y="531"/>
      <point x="442" y="533"/>
      <point x="424" y="533" type="curve" smooth="yes"/>
      <point x="407" y="533"/>
      <point x="388" y="531"/>
      <point x="370" y="527" type="curve"/>
      <point x="380" y="498"/>
      <point x="386" y="421"/>
      <point x="386" y="295" type="curve"/>
      <point x="364" y="294"/>
      <point x="337" y="292"/>
      <point x="305" y="292" type="curve" smooth="yes"/>
      <point x="261" y="292"/>
      <point x="207" y="293"/>
      <point x="164" y="297" type="curve"/>
      <point x="165" y="383"/>
      <point x="169" y="475"/>
      <point x="174" y="527" type="curve"/>
      <point x="152" y="531"/>
      <point x="133" y="533"/>
      <point x="116" y="533" type="curve" smooth="yes"/>
      <point x="99" y="533"/>
      <point x="80" y="531"/>
      <point x="62" y="527" type="curve"/>
      <point x="73" y="497"/>
      <point x="78" y="421"/>
      <point x="78" y="302" type="curve" smooth="yes"/>
      <point x="78" y="196"/>
      <point x="73" y="65"/>
      <point x="67" y="0" type="curve"/>
      <point x="89" y="-4"/>
      <point x="107" y="-6"/>
      <point x="124" y="-6" type="curve" smooth="yes"/>
    </contour>
    <contour>
      <point x="275" y="414" type="move" name="center"/>
    </contour>
    <contour>
      <point x="275" y="527" type="move" name="top"/>
    </contour>
    <contour>
      <point x="21" y="527" type="move" name="topleft"/>
    </contour>
    <contour>
      <point x="275" y="0" type="move" name="bottom"/>
    </contour>
  </outline>
</glyph>
<glyph name="I" format="1">
  <advance width="242"/>
  <unicode hex="0049"/>
  <outline>
    <contour>
      <point x="142" y="-6"/>
      <point x="161" y="-4"/>
      <point x="179" y="0" type="curve"/>
      <point x="168" y="30"/>
      <point x="163" y="108"/>
      <point x="163" y="227" type="curve" smooth="yes"/>
      <point x="163" y="332"/>
      <point x="168" y="462"/>
      <point x="174" y="527" type="curve"/>
      <point x="152" y="531"/>
      <point x="133" y="533"/>
      <point x="116" y="533" type="curve" smooth="yes"/>
      <point x="99" y="533"/>
      <point x="80" y="531"/>
      <point x="62" y="527" type="curve"/>
      <point x="73" y="497"/>
      <point x="78" y="421"/>
      <point x="78" y="302" type="curve" smooth="yes"/>
      <point x="78" y="196"/>
      <point x="73" y="65"/>
      <point x="67" y="0" type="curve"/>
      <point x="89" y="-4"/>
      <point x="107" y="-6"/>
      <point x="124" y="-6" type="curve" smooth="yes"/>
    </contour>
    <contour>
      <point x="180" y="0" type="move" name="ogonek"/>
    </contour>
    <contour>
      <point x="121" y="527" type="move" name="top"/>
    </contour>
    <contour>
      <point x="20" y="527" type="move" name="topleft"/>
    </contour>
    <contour>
      <point x="121" y="0" type="move" name="bottom"/>
    </contour>
  </outline>
</glyph>
<glyph name="K" format="1">
  <advance width="499"/>
  <unicode hex="004B"/>
  <outline>
    <contour>
      <point x="142" y="-6"/>
      <point x="161" y="-4"/>
      <point x="179" y="0" type="curve"/>
      <point x="169" y="27"/>
      <point x="164" y="92"/>
      <point x="163" y="192" type="curve"/>
      <point x="178" y="208"/>
      <point x="193" y="226"/>
      <point x="209" y="244" type="curve"/>
      <point x="290" y="129"/>
      <point x="352" y="36"/>
      <point x="377" y="-6" type="curve"/>
      <point x="425" y="-6"/>
      <point x="462" y="-1"/>
      <point x="499" y="15" type="curve"/>
      <point x="440" y="58"/>
      <point x="353" y="183"/>
      <point x="271" y="314" type="curve"/>
      <point x="340" y="391"/>
      <point x="414" y="472"/>
      <point x="479" y="533" type="curve"/>
      <point x="438" y="533"/>
      <point x="402" y="531"/>
      <point x="354" y="522" type="curve"/>
      <point x="354" y="492"/>
      <point x="326" y="443"/>
      <point x="163" y="269" type="curve"/>
      <point x="164" y="364"/>
      <point x="169" y="470"/>
      <point x="174" y="527" type="curve"/>
      <point x="152" y="531"/>
      <point x="133" y="533"/>
      <point x="116" y="533" type="curve" smooth="yes"/>
      <point x="99" y="533"/>
      <point x="80" y="531"/>
      <point x="62" y="527" type="curve"/>
      <point x="73" y="497"/>
      <point x="78" y="421"/>
      <point x="78" y="302" type="curve" smooth="yes"/>
      <point x="78" y="196"/>
      <point x="73" y="65"/>
      <point x="67" y="0" type="curve"/>
      <point x="89" y="-4"/>
      <point x="107" y="-6"/>
      <point x="124" y="-6" type="curve" smooth="yes"/>
    </contour>
    <contour>
      <point x="250" y="527" type="move" name="top"/>
    </contour>
    <contour>
      <point x="250" y="0" type="move" name="bottom"/>
    </contour>
  </outline>
</glyph>
<glyph name="M" format="1">
  <advance width="713"/>
  <unicode hex="004D"/>
  <outline>
    <contour>
      <point x="119" y="-6"/>
      <point x="133" y="-4"/>
      <point x="145" y="0" type="curve"/>
      <point x="138" y="30"/>
      <point x="134" y="107"/>
      <point x="134" y="227" type="curve" smooth="yes"/>
      <point x="134" y="279"/>
      <point x="135" y="336"/>
      <point x="136" y="388" type="curve"/>
      <point x="200" y="258"/>
      <point x="280" y="79"/>
      <point x="314" y="0" type="curve"/>
      <point x="320" y="-3"/>
      <point x="327" y="-5"/>
      <point x="334" y="-5" type="curve" smooth="yes"/>
      <point x="341" y="-5"/>
      <point x="348" y="-3"/>
      <point x="355" y="0" type="curve"/>
      <point x="392" y="84"/>
      <point x="481" y="283"/>
      <point x="547" y="414" type="curve"/>
      <point x="548" y="382"/>
      <point x="549" y="344"/>
      <point x="549" y="300" type="curve" smooth="yes"/>
      <point x="549" y="196"/>
      <point x="544" y="66"/>
      <point x="538" y="0" type="curve"/>
      <point x="560" y="-4"/>
      <point x="579" y="-6"/>
      <point x="596" y="-6" type="curve" smooth="yes"/>
      <point x="614" y="-6"/>
      <point x="632" y="-4"/>
      <point x="650" y="0" type="curve"/>
      <point x="639" y="30"/>
      <point x="634" y="107"/>
      <point x="634" y="227" type="curve" smooth="yes"/>
      <point x="634" y="331"/>
      <point x="639" y="461"/>
      <point x="645" y="527" type="curve"/>
      <point x="624" y="531"/>
      <point x="605" y="533"/>
      <point x="588" y="533" type="curve" smooth="yes"/>
      <point x="564" y="533"/>
      <point x="546" y="531"/>
      <point x="533" y="527" type="curve"/>
      <point x="498" y="446"/>
      <point x="410" y="250"/>
      <point x="353" y="135" type="curve"/>
      <point x="300" y="241"/>
      <point x="208" y="445"/>
      <point x="173" y="527" type="curve"/>
      <point x="149" y="531"/>
      <point x="132" y="533"/>
      <point x="116" y="533" type="curve" smooth="yes"/>
      <point x="97" y="533"/>
      <point x="79" y="531"/>
      <point x="62" y="527" type="curve"/>
      <point x="71" y="497"/>
      <point x="74" y="436"/>
      <point x="74" y="302" type="curve" smooth="yes"/>
      <point x="74" y="197"/>
      <point x="71" y="66"/>
      <point x="66" y="0" type="curve"/>
      <point x="82" y="-4"/>
      <point x="95" y="-6"/>
      <point x="107" y="-6" type="curve" smooth="yes"/>
    </contour>
  </outline>
</glyph>
<glyph name="N" format="1">
  <advance width="536"/>
  <unicode hex="004E"/>
  <outline>
    <contour>
      <point x="112" y="-6"/>
      <point x="126" y="-4"/>
      <point x="139" y="0" type="curve"/>
      <point x="132" y="30"/>
      <point x="128" y="107"/>
      <point x="128" y="227" type="curve" smooth="yes"/>
      <point x="128" y="287"/>
      <point x="129" y="353"/>
      <point x="131" y="412" type="curve"/>
      <point x="211" y="281"/>
      <point x="323" y="83"/>
      <point x="369" y="0" type="curve"/>
      <point x="393" y="-4"/>
      <point x="411" y="-6"/>
      <point x="428" y="-6" type="curve" smooth="yes"/>
      <point x="449" y="-6"/>
      <point x="471" y="-3"/>
      <point x="478" y="0" type="curve"/>
      <point x="471" y="30"/>
      <point x="467" y="106"/>
      <point x="467" y="225" type="curve" smooth="yes"/>
      <point x="467" y="330"/>
      <point x="471" y="461"/>
      <point x="475" y="527" type="curve"/>
      <point x="460" y="531"/>
      <point x="447" y="533"/>
      <point x="436" y="533" type="curve" smooth="yes"/>
      <point x="423" y="533"/>
      <point x="409" y="531"/>
      <point x="397" y="527" type="curve"/>
      <point x="405" y="497"/>
      <point x="408" y="420"/>
      <point x="408" y="300" type="curve" smooth="yes"/>
      <point x="408" y="241"/>
      <point x="407" y="173"/>
      <point x="406" y="114" type="curve"/>
      <point x="325" y="247"/>
      <point x="212" y="443"/>
      <point x="167" y="527" type="curve"/>
      <point x="143" y="531"/>
      <point x="125" y="533"/>
      <point x="109" y="533" type="curve" smooth="yes"/>
      <point x="92" y="533"/>
      <point x="79" y="531"/>
      <point x="57" y="527" type="curve"/>
      <point x="64" y="497"/>
      <point x="68" y="421"/>
      <point x="68" y="302" type="curve" smooth="yes"/>
      <point x="68" y="197"/>
      <point x="65" y="66"/>
      <point x="60" y="0" type="curve"/>
      <point x="75" y="-4"/>
      <point x="88" y="-6"/>
      <point x="100" y="-6" type="curve" smooth="yes"/>
    </contour>
    <contour>
      <point x="268" y="527" type="move" name="top"/>
    </contour>
    <contour>
      <point x="268" y="0" type="move" name="bottom"/>
    </contour>
  </outline>
</glyph>
<glyph name="O" format="1">
  <advance width="611"/>
  <unicode hex="004F"/>
  <outline>
    <contour>
      <point x="451" y="-13"/>
      <point x="570" y="105"/>
      <point x="570" y="272" type="curve" smooth="yes"/>
      <point x="570" y="430"/>
      <point x="471" y="535"/>
      <point x="324" y="535" type="curve" smooth="yes"/>
      <point x="158" y="535"/>
      <point x="42" y="415"/>
      <point x="42" y="244" type="curve" smooth="yes"/>
      <point x="42" y="90"/>
      <point x="137" y="-13"/>
      <point x="279" y="-13" type="curve" smooth="yes"/>
    </contour>
    <contour>
      <point x="203" y="39"/>
      <point x="137" y="122"/>
      <point x="137" y="246" type="curve" smooth="yes"/>
      <point x="137" y="365"/>
      <point x="213" y="451"/>
      <point x="319" y="451" type="curve"/>
      <point x="417" y="433"/>
      <point x="474" y="355"/>
      <point x="474" y="242" type="curve" smooth="yes"/>
      <point x="474" y="117"/>
      <point x="407" y="39"/>
      <point x="302" y="39" type="curve" smooth="yes"/>
    </contour>
    <contour>
      <point x="305" y="264" type="move" name="center"/>
    </contour>
    <contour>
      <point x="550" y="10" type="move" name="ogonek"/>
    </contour>
    <contour>
      <point x="305" y="527" type="move" name="top"/>
    </contour>
    <contour>
      <point x="591" y="527" type="move" name="topright"/>
    </contour>
    <contour>
      <point x="20" y="527" type="move" name="topleft"/>
    </contour>
    <contour>
      <point x="305" y="0" type="move" name="bottom"/>
    </contour>
  </outline>
</glyph>
<glyph name="R" format="1">
  <advance width="503"/>
  <unicode hex="0052"/>
  <outline>
    <contour>
      <point x="142" y="-6"/>
      <point x="161" y="-4"/>
      <point x="179" y="0" type="curve"/>
      <point x="170" y="27"/>
      <point x="164" y="90"/>
      <point x="163" y="188" type="curve"/>
      <point x="187" y="182"/>
      <point x="243" y="178"/>
      <point x="262" y="181" type="curve"/>
      <point x="308" y="95"/>
      <point x="342" y="27"/>
      <point x="355" y="-6" type="curve"/>
      <point x="401" y="-6"/>
      <point x="437" y="-1"/>
      <point x="474" y="15" type="curve"/>
      <point x="438" y="44"/>
      <point x="395" y="119"/>
      <point x="352" y="203" type="curve"/>
      <point x="415" y="233"/>
      <point x="453" y="287"/>
      <point x="453" y="356" type="curve" smooth="yes"/>
      <point x="453" y="469"/>
      <point x="379" y="532"/>
      <point x="246" y="532" type="curve" smooth="yes"/>
      <point x="176" y="532"/>
      <point x="102" y="521"/>
      <point x="62" y="505" type="curve"/>
      <point x="73" y="478"/>
      <point x="78" y="409"/>
      <point x="78" y="302" type="curve" smooth="yes"/>
      <point x="78" y="209"/>
      <point x="73" y="66"/>
      <point x="67" y="0" type="curve"/>
      <point x="89" y="-4"/>
      <point x="107" y="-6"/>
      <point x="124" y="-6" type="curve" smooth="yes"/>
    </contour>
    <contour>
      <point x="248" y="231"/>
      <point x="206" y="241"/>
      <point x="164" y="256" type="curve"/>
      <point x="165" y="326"/>
      <point x="167" y="403"/>
      <point x="171" y="460" type="curve"/>
      <point x="189" y="465"/>
      <point x="207" y="467"/>
      <point x="226" y="467" type="curve" smooth="yes"/>
      <point x="310" y="467"/>
      <point x="359" y="431"/>
      <point x="359" y="348" type="curve" smooth="yes"/>
      <point x="359" y="294"/>
      <point x="321" y="251"/>
      <point x="274" y="231" type="curve"/>
    </contour>
    <contour>
      <point x="250" y="527" type="move" name="top"/>
    </contour>
    <contour>
      <point x="250" y="0" type="move" name="bottom"/>
    </contour>
  </outline>
</glyph>
<glyph name="U" format="1">
  <advance width="529"/>
  <unicode hex="0055"/>
  <outline>
    <contour>
      <point x="424" y="-5"/>
      <point x="468" y="98"/>
      <point x="468" y="205" type="curve" smooth="yes"/>
      <point x="468" y="305"/>
      <point x="472" y="453"/>
      <point x="476" y="527" type="curve"/>
      <point x="461" y="531"/>
      <point x="447" y="533"/>
      <point x="436" y="533" type="curve" smooth="yes"/>
      <point x="423" y="533"/>
      <point x="410" y="531"/>
      <point x="398" y="527" type="curve"/>
      <point x="404" y="482"/>
      <point x="406" y="315"/>
      <point x="406" y="184" type="curve" smooth="yes"/>
      <point x="406" y="119"/>
      <point x="379" y="60"/>
      <point x="279" y="60" type="curve" smooth="yes"/>
      <point x="203" y="60"/>
      <point x="158" y="101"/>
      <point x="158" y="197" type="curve" smooth="yes"/>
      <point x="158" y="311"/>
      <point x="161" y="454"/>
      <point x="164" y="527" type="curve"/>
      <point x="142" y="531"/>
      <point x="123" y="533"/>
      <point x="106" y="533" type="curve" smooth="yes"/>
      <point x="88" y="533"/>
      <point x="70" y="531"/>
      <point x="52" y="527" type="curve"/>
      <point x="63" y="484"/>
      <point x="68" y="323"/>
      <point x="68" y="200" type="curve" smooth="yes"/>
      <point x="68" y="69"/>
      <point x="139" y="-5"/>
      <point x="259" y="-5" type="curve" smooth="yes"/>
    </contour>
    <contour>
      <point x="357" y="11" type="move" name="ogonek"/>
    </contour>
    <contour>
      <point x="285" y="527" type="move" name="top"/>
    </contour>
    <contour>
      <point x="509" y="527" type="move" name="topright"/>
    </contour>
    <contour>
      <point x="265" y="0" type="move" name="bottom"/>
    </contour>
  </outline>
</glyph>
<glyph name="V" format="1">
  <advance width="486"/>
  <unicode hex="0056"/>
  <outline>
    <contour>
      <point x="318" y="27" type="line"/>
      <point x="358" y="168"/>
      <point x="436" y="409"/>
      <point x="481" y="533" type="curve"/>
      <point x="446" y="533"/>
      <point x="420" y="530"/>
      <point x="391" y="522" type="curve"/>
      <point x="403" y="488"/>
      <point x="368" y="352"/>
      <point x="274" y="70" type="curve"/>
      <point x="255" y="102"/>
      <point x="230" y="160"/>
      <point x="196" y="260" type="curve" smooth="yes"/>
      <point x="169" y="350"/>
      <point x="137" y="471"/>
      <point x="127" y="533" type="curve"/>
      <point x="79" y="533"/>
      <point x="42" y="526"/>
      <point x="5" y="512" type="curve"/>
      <point x="125" y="284"/>
      <point x="144" y="-9"/>
      <point x="256" y="-9" type="curve"/>
    </contour>
    <contour>
      <point x="243" y="527" type="move" name="top"/>
    </contour>
    <contour>
      <point x="243" y="0" type="move" name="bottom"/>
    </contour>
  </outline>
</glyph>
<glyph name="X" format="1">
  <advance width="511"/>
  <unicode hex="0058"/>
  <outline>
    <contour>
      <point x="37" y="-6"/>
      <point x="68" y="-5"/>
      <point x="108" y="0" type="curve"/>
      <point x="114" y="26"/>
      <point x="153" y="93"/>
      <point x="245" y="208" type="curve"/>
      <point x="315" y="107"/>
      <point x="373" y="14"/>
      <point x="382" y="-6" type="curve"/>
      <point x="429" y="-6"/>
      <point x="466" y="-1"/>
      <point x="503" y="15" type="curve"/>
      <point x="478" y="34"/>
      <point x="389" y="159"/>
      <point x="305" y="282" type="curve"/>
      <point x="363" y="358"/>
      <point x="445" y="463"/>
      <point x="511" y="533" type="curve"/>
      <point x="475" y="533"/>
      <point x="444" y="532"/>
      <point x="404" y="527" type="curve"/>
      <point x="398" y="501"/>
      <point x="361" y="438"/>
      <point x="274" y="329" type="curve"/>
      <point x="208" y="426"/>
      <point x="153" y="514"/>
      <point x="145" y="533" type="curve"/>
      <point x="98" y="533"/>
      <point x="60" y="528"/>
      <point x="24" y="512" type="curve"/>
      <point x="49" y="493"/>
      <point x="133" y="375"/>
      <point x="214" y="255" type="curve"/>
      <point x="156" y="178"/>
      <point x="69" y="67"/>
      <point x="1" y="-6" type="curve"/>
    </contour>
  </outline>
</glyph>
<glyph name="bracketleft" format="1">
  <advance width="352"/>
  <unicode hex="005B"/>
  <outline>
    <contour>
      <point x="320" y="-110"/>
      <point x="322" y="-95"/>
      <point x="322" y="-81" type="curve" smooth="yes"/>
      <point x="322" y="-68"/>
      <point x="320" y="-53"/>
      <point x="317" y="-35" type="curve"/>
      <point x="285" y="-38"/>
      <point x="232" y="-41"/>
      <point x="178" y="-42" type="curve"/>
      <point x="168" y="23"/>
      <point x="165" y="119"/>
      <point x="165" y="293" type="curve" smooth="yes"/>
      <point x="165" y="359"/>
      <point x="168" y="486"/>
      <point x="172" y="570" type="curve"/>
      <point x="226" y="569"/>
      <point x="277" y="566"/>
      <point x="309" y="563" type="curve"/>
      <point x="312" y="581"/>
      <point x="314" y="596"/>
      <point x="314" y="609" type="curve" smooth="yes"/>
      <point x="314" y="623"/>
      <point x="312" y="638"/>
      <point x="309" y="652" type="curve"/>
      <point x="288" y="645"/>
      <point x="233" y="639"/>
      <point x="151" y="639" type="curve" smooth="yes"/>
      <point x="121" y="639"/>
      <point x="90" y="640"/>
      <point x="62" y="643" type="curve"/>
      <point x="73" y="583"/>
      <point x="78" y="499"/>
      <point x="78" y="293" type="curve" smooth="yes"/>
      <point x="78" y="191"/>
      <point x="73" y="-32"/>
      <point x="67" y="-117" type="curve"/>
      <point x="102" y="-113"/>
      <point x="131" y="-111"/>
      <point x="158" y="-111" type="curve" smooth="yes"/>
      <point x="241" y="-111"/>
      <point x="296" y="-117"/>
      <point x="317" y="-124" type="curve"/>
    </contour>
  </outline>
</glyph>
<glyph name="a" format="1">
  <advance width="437"/>
  <unicode hex="0061"/>
  <outline>
    <contour>
      <point x="172" y="-11"/>
      <point x="228" y="11"/>
      <point x="275" y="44" type="curve"/>
      <point x="282" y="21"/>
      <point x="293" y="2"/>
      <point x="312" y="-11" type="curve"/>
      <point x="342" y="-7"/>
      <point x="371" y="7"/>
      <point x="393" y="27" type="curve"/>
      <point x="362" y="60"/>
      <point x="354" y="82"/>
      <point x="354" y="132" type="curve" smooth="yes"/>
      <point x="354" y="179"/>
      <point x="363" y="231"/>
      <point x="363" y="284" type="curve" smooth="yes"/>
      <point x="363" y="370"/>
      <point x="316" y="418"/>
      <point x="229" y="418" type="curve" smooth="yes"/>
      <point x="165" y="418"/>
      <point x="98" y="378"/>
      <point x="62" y="319" type="curve"/>
      <point x="70" y="300" type="line"/>
      <point x="104" y="323"/>
      <point x="148" y="337"/>
      <point x="189" y="337" type="curve" smooth="yes"/>
      <point x="258" y="337"/>
      <point x="279" y="305"/>
      <point x="278" y="219" type="curve"/>
      <point x="120" y="209"/>
      <point x="43" y="164"/>
      <point x="43" y="83" type="curve" smooth="yes"/>
      <point x="43" y="28"/>
      <point x="81" y="-11"/>
      <point x="128" y="-11" type="curve" smooth="yes"/>
    </contour>
    <contour>
      <point x="149" y="49"/>
      <point x="135" y="74"/>
      <point x="135" y="96" type="curve" smooth="yes"/>
      <point x="135" y="151"/>
      <point x="187" y="185"/>
      <point x="278" y="190" type="curve"/>
      <point x="276" y="149"/>
      <point x="272" y="123"/>
      <point x="272" y="85" type="curve" smooth="yes"/>
      <point x="272" y="80" type="line"/>
      <point x="243" y="58"/>
      <point x="202" y="40"/>
      <point x="169" y="37" type="curve"/>
    </contour>
    <contour>
      <point x="354" y="1" type="move" name="ogonek"/>
    </contour>
    <contour>
      <point x="218" y="0" type="move" name="bottom"/>
    </contour>
    <contour>
      <point x="218" y="407" type="move" name="top"/>
    </contour>
  </outline>
</glyph>
<glyph name="d" format="1">
  <advance width="500"/>
  <unicode hex="0064"/>
  <outline>
    <contour>
      <point x="257" y="-12"/>
      <point x="303" y="10"/>
      <point x="338" y="45" type="curve"/>
      <point x="345" y="22"/>
      <point x="357" y="3"/>
      <point x="377" y="-11" type="curve"/>
      <point x="406" y="-7"/>
      <point x="434" y="6"/>
      <point x="456" y="25" type="curve"/>
      <point x="425" y="57"/>
      <point x="417" y="78"/>
      <point x="417" y="125" type="curve" smooth="yes"/>
      <point x="417" y="320"/>
      <point x="422" y="474"/>
      <point x="429" y="547" type="curve"/>
      <point x="391" y="547"/>
      <point x="359" y="543"/>
      <point x="319" y="527" type="curve"/>
      <point x="328" y="493"/>
      <point x="334" y="444"/>
      <point x="337" y="378" type="curve"/>
      <point x="301" y="405"/>
      <point x="261" y="418"/>
      <point x="216" y="418" type="curve" smooth="yes"/>
      <point x="105" y="418"/>
      <point x="47" y="343"/>
      <point x="47" y="200" type="curve" smooth="yes"/>
      <point x="47" y="60"/>
      <point x="104" y="-12"/>
      <point x="211" y="-12" type="curve" smooth="yes"/>
    </contour>
    <contour>
      <point x="174" y="47"/>
      <point x="138" y="104"/>
      <point x="138" y="196" type="curve" smooth="yes"/>
      <point x="138" y="289"/>
      <point x="176" y="340"/>
      <point x="247" y="340" type="curve" smooth="yes"/>
      <point x="282" y="340"/>
      <point x="314" y="331"/>
      <point x="339" y="315" type="curve"/>
      <point x="339" y="230"/>
      <point x="335" y="150"/>
      <point x="335" y="81" type="curve"/>
      <point x="305" y="59"/>
      <point x="269" y="41"/>
      <point x="237" y="37" type="curve"/>
    </contour>
    <contour>
      <point x="359" y="470" type="move" name="center"/>
    </contour>
    <contour>
      <point x="258" y="407" type="move" name="top"/>
    </contour>
    <contour>
      <point x="524" y="407" type="move" name="topright"/>
    </contour>
    <contour>
      <point x="258" y="0" type="move" name="bottom"/>
    </contour>
  </outline>
</glyph>
<glyph name="e" format="1">
  <advance width="458"/>
  <unicode hex="0065"/>
  <outline>
    <contour>
      <point x="280" y="-11"/>
      <point x="355" y="25"/>
      <point x="395" y="78" type="curve"/>
      <point x="389" y="97" type="line"/>
      <point x="353" y="74"/>
      <point x="303" y="61"/>
      <point x="249" y="61" type="curve" smooth="yes"/>
      <point x="177" y="61"/>
      <point x="143" y="96"/>
      <point x="134" y="177" type="curve"/>
      <point x="235" y="180"/>
      <point x="342" y="194"/>
      <point x="410" y="211" type="curve"/>
      <point x="410" y="347"/>
      <point x="354" y="418"/>
      <point x="248" y="418" type="curve" smooth="yes"/>
      <point x="126" y="418"/>
      <point x="42" y="325"/>
      <point x="42" y="191" type="curve" smooth="yes"/>
      <point x="42" y="61"/>
      <point x="102" y="-11"/>
      <point x="208" y="-11" type="curve" smooth="yes"/>
    </contour>
    <contour>
      <point x="133" y="285"/>
      <point x="160" y="348"/>
      <point x="201" y="372" type="curve"/>
      <point x="262" y="372"/>
      <point x="306" y="321"/>
      <point x="306" y="251" type="curve"/>
      <point x="269" y="232"/>
      <point x="197" y="216"/>
      <point x="133" y="209" type="curve"/>
    </contour>
    <contour>
      <point x="309" y="13" type="move" name="ogonek"/>
    </contour>
    <contour>
      <point x="222" y="0" type="move" name="bottom"/>
    </contour>
    <contour>
      <point x="232" y="407" type="move" name="top"/>
    </contour>
  </outline>
</glyph>
<glyph name="g" format="1">
  <advance width="443"/>
  <unicode hex="0067"/>
  <outline>
    <contour>
      <point x="320" y="-180"/>
      <point x="408" y="-119"/>
      <point x="408" y="-38" type="curve" smooth="yes"/>
      <point x="408" y="20"/>
      <point x="370" y="53"/>
      <point x="298" y="59" type="curve" smooth="yes"/>
      <point x="110" y="69" type="line"/>
      <point x="110" y="99"/>
      <point x="146" y="119"/>
      <point x="203" y="119" type="curve" smooth="yes"/>
      <point x="308" y="119"/>
      <point x="383" y="184"/>
      <point x="383" y="277" type="curve" smooth="yes"/>
      <point x="383" y="306"/>
      <point x="376" y="332"/>
      <point x="363" y="354" type="curve"/>
      <point x="393" y="356"/>
      <point x="422" y="363"/>
      <point x="443" y="374" type="curve"/>
      <point x="443" y="394"/>
      <point x="431" y="430"/>
      <point x="417" y="454" type="curve"/>
      <point x="383" y="425"/>
      <point x="347" y="403"/>
      <point x="320" y="396" type="curve"/>
      <point x="295" y="410"/>
      <point x="265" y="418"/>
      <point x="231" y="418" type="curve" smooth="yes"/>
      <point x="127" y="418"/>
      <point x="55" y="353"/>
      <point x="55" y="260" type="curve" smooth="yes"/>
      <point x="55" y="203"/>
      <point x="82" y="158"/>
      <point x="128" y="135" type="curve"/>
      <point x="81" y="118"/>
      <point x="51" y="86"/>
      <point x="51" y="49" type="curve" smooth="yes"/>
      <point x="51" y="23"/>
      <point x="66" y="4"/>
      <point x="90" y="-5" type="curve"/>
      <point x="56" y="-41"/>
      <point x="37" y="-89"/>
      <point x="37" y="-137" type="curve"/>
      <point x="76" y="-164"/>
      <point x="131" y="-180"/>
      <point x="201" y="-180" type="curve" smooth="yes"/>
    </contour>
    <contour>
      <point x="175" y="-115"/>
      <point x="136" y="-97"/>
      <point x="111" y="-63" type="curve"/>
      <point x="115" y="-45"/>
      <point x="123" y="-26"/>
      <point x="132" y="-9" type="curve"/>
      <point x="282" y="-17" type="line" smooth="yes"/>
      <point x="328" y="-19"/>
      <point x="344" y="-30"/>
      <point x="344" y="-57" type="curve" smooth="yes"/>
      <point x="344" y="-92"/>
      <point x="297" y="-115"/>
      <point x="226" y="-115" type="curve" smooth="yes"/>
    </contour>
    <contour>
      <point x="167" y="161"/>
      <point x="132" y="195"/>
      <point x="132" y="248" type="curve" smooth="yes"/>
      <point x="132" y="303"/>
      <point x="172" y="342"/>
      <point x="226" y="342" type="curve"/>
      <point x="277" y="330"/>
      <point x="307" y="294"/>
      <point x="307" y="246" type="curve" smooth="yes"/>
      <point x="307" y="192"/>
      <point x="274" y="161"/>
      <point x="218" y="161" type="curve" smooth="yes"/>
    </contour>
    <contour>
      <point x="232" y="407" type="move" name="top"/>
    </contour>
    <contour>
      <point x="226" y="0" type="move" name="bottom"/>
    </contour>
  </outline>
</glyph>
<glyph name="k" format="1">
  <advance width="441"/>
  <unicode hex="006B"/>
  <outline>
    <contour>
      <point x="142" y="-6"/>
      <point x="161" y="-4"/>
      <point x="179" y="0" type="curve"/>
      <point x="169" y="22"/>
      <point x="162" y="72"/>
      <point x="159" y="145" type="curve"/>
      <point x="206" y="197" type="line"/>
      <point x="267" y="104"/>
      <point x="314" y="29"/>
      <point x="333" y="-6" type="curve"/>
      <point x="378" y="-6"/>
      <point x="412" y="-1"/>
      <point x="450" y="15" type="curve"/>
      <point x="402" y="51"/>
      <point x="333" y="156"/>
      <point x="268" y="265" type="curve"/>
      <point x="319" y="320"/>
      <point x="372" y="375"/>
      <point x="418" y="418" type="curve"/>
      <point x="387" y="418"/>
      <point x="358" y="416"/>
      <point x="320" y="407" type="curve"/>
      <point x="320" y="384"/>
      <point x="292" y="348"/>
      <point x="158" y="205" type="curve"/>
      <point x="158" y="227" type="line" smooth="yes"/>
      <point x="158" y="338"/>
      <point x="165" y="477"/>
      <point x="174" y="547" type="curve"/>
      <point x="131" y="547"/>
      <point x="98" y="541"/>
      <point x="64" y="527" type="curve"/>
      <point x="70" y="468"/>
      <point x="74" y="367"/>
      <point x="74" y="255" type="curve" smooth="yes"/>
      <point x="74" y="171"/>
      <point x="71" y="73"/>
      <point x="67" y="0" type="curve"/>
      <point x="88" y="-4"/>
      <point x="107" y="-6"/>
      <point x="123" y="-6" type="curve" smooth="yes"/>
    </contour>
    <contour>
      <point x="220" y="407" type="move" name="top"/>
    </contour>
    <contour>
      <point x="220" y="0" type="move" name="bottom"/>
    </contour>
  </outline>
</glyph>
<glyph name="q" format="1">
  <advance width="511"/>
  <unicode hex="0071"/>
  <outline>
    <contour>
      <point x="367" y="-180"/>
      <point x="400" y="-176"/>
      <point x="434" y="-165" type="curve"/>
      <point x="427" y="-89"/>
      <point x="422" y="56"/>
      <point x="422" y="213" type="curve" smooth="yes"/>
      <point x="422" y="321"/>
      <point x="430" y="344"/>
      <point x="461" y="378" type="curve"/>
      <point x="438" y="405"/>
      <point x="410" y="414"/>
      <point x="393" y="414" type="curve" smooth="yes"/>
      <point x="366" y="414"/>
      <point x="349" y="400"/>
      <point x="342" y="373" type="curve"/>
      <point x="305" y="403"/>
      <point x="263" y="418"/>
      <point x="216" y="418" type="curve" smooth="yes"/>
      <point x="105" y="418"/>
      <point x="47" y="343"/>
      <point x="47" y="200" type="curve" smooth="yes"/>
      <point x="47" y="60"/>
      <point x="104" y="-12"/>
      <point x="211" y="-12" type="curve" smooth="yes"/>
      <point x="258" y="-12"/>
      <point x="307" y="12"/>
      <point x="343" y="49" type="curve"/>
      <point x="341" y="-57"/>
      <point x="335" y="-131"/>
      <point x="324" y="-180" type="curve"/>
    </contour>
    <contour>
      <point x="174" y="47"/>
      <point x="138" y="104"/>
      <point x="138" y="196" type="curve" smooth="yes"/>
      <point x="138" y="289"/>
      <point x="176" y="340"/>
      <point x="247" y="340" type="curve" smooth="yes"/>
      <point x="282" y="340"/>
      <point x="313" y="331"/>
      <point x="338" y="314" type="curve"/>
      <point x="339" y="263"/>
      <point x="344" y="195"/>
      <point x="344" y="112" type="curve" smooth="yes"/>
      <point x="344" y="89" type="line"/>
      <point x="313" y="62"/>
      <point x="272" y="42"/>
      <point x="237" y="37" type="curve"/>
    </contour>
    <contour>
      <point x="250" y="407" type="move" name="top"/>
    </contour>
    <contour>
      <point x="250" y="0" type="move" name="bottom"/>
    </contour>
  </outline>
</glyph>
<glyph name="r" format="1">
  <advance width="338"/>
  <unicode hex="0072"/>
  <outline>
    <contour>
      <point x="172" y="-6"/>
      <point x="189" y="-4"/>
      <point x="208" y="0" type="curve"/>
      <point x="195" y="29"/>
      <point x="188" y="82"/>
      <point x="188" y="150" type="curve" smooth="yes"/>
      <point x="188" y="209"/>
      <point x="191" y="258"/>
      <point x="192" y="298" type="curve"/>
      <point x="221" y="316"/>
      <point x="275" y="330"/>
      <point x="334" y="322" type="curve"/>
      <point x="334" y="355"/>
      <point x="326" y="401"/>
      <point x="316" y="423" type="curve"/>
      <point x="263" y="409"/>
      <point x="226" y="381"/>
      <point x="192" y="340" type="curve"/>
      <point x="191" y="387"/>
      <point x="173" y="414"/>
      <point x="133" y="414" type="curve" smooth="yes"/>
      <point x="116" y="414"/>
      <point x="87" y="405"/>
      <point x="64" y="378" type="curve"/>
      <point x="95" y="344"/>
      <point x="103" y="321"/>
      <point x="103" y="213" type="curve" smooth="yes"/>
      <point x="103" y="139"/>
      <point x="100" y="57"/>
      <point x="96" y="0" type="curve"/>
      <point x="118" y="-4"/>
      <point x="137" y="-6"/>
      <point x="154" y="-6" type="curve" smooth="yes"/>
    </contour>
    <contour>
      <point x="193" y="407" type="move" name="top"/>
    </contour>
    <contour>
      <point x="149" y="0" type="move" name="bottom"/>
    </contour>
  </outline>
</glyph>
<glyph name="v" format="1">
  <advance width="413"/>
  <unicode hex="0076"/>
  <outline>
    <contour>
      <point x="283" y="27" type="line"/>
      <point x="314" y="140"/>
      <point x="363" y="304"/>
      <point x="408" y="413" type="curve"/>
      <point x="378" y="413"/>
      <point x="352" y="411"/>
      <point x="319" y="402" type="curve"/>
      <point x="334" y="368"/>
      <point x="320" y="312"/>
      <point x="239" y="55" type="curve"/>
      <point x="200" y="118"/>
      <point x="129" y="351"/>
      <point x="118" y="413" type="curve"/>
      <point x="76" y="413"/>
      <point x="43" y="408"/>
      <point x="5" y="392" type="curve"/>
      <point x="112" y="260"/>
      <point x="107" y="-9"/>
      <point x="220" y="-9" type="curve"/>
    </contour>
    <contour>
      <point x="235" y="407" type="move" name="top"/>
    </contour>
    <contour>
      <point x="235" y="0" type="move" name="bottom"/>
    </contour>
  </outline>
</glyph>
<glyph name="w" format="1">
  <advance width="673"/>
  <unicode hex="0077"/>
  <outline>
    <contour>
      <point x="258" y="22" type="line"/>
      <point x="285" y="108"/>
      <point x="311" y="188"/>
      <point x="336" y="257" type="curve"/>
      <point x="352" y="197"/>
      <point x="370" y="137"/>
      <point x="389" y="73" type="curve" smooth="yes"/>
      <point x="406" y="19"/>
      <point x="432" y="-9"/>
      <point x="472" y="-9" type="curve"/>
      <point x="526" y="22" type="line"/>
      <point x="578" y="189"/>
      <point x="631" y="332"/>
      <point x="668" y="413" type="curve"/>
      <point x="630" y="413"/>
      <point x="605" y="410"/>
      <point x="578" y="402" type="curve"/>
      <point x="590" y="369"/>
      <point x="578" y="324"/>
      <point x="487" y="63" type="curve"/>
      <point x="475" y="83"/>
      <point x="396" y="353"/>
      <point x="388" y="413" type="curve"/>
      <point x="342" y="413"/>
      <point x="308" y="407"/>
      <point x="273" y="392" type="curve"/>
      <point x="284" y="382"/>
      <point x="295" y="364"/>
      <point x="306" y="338" type="curve"/>
      <point x="295" y="292"/>
      <point x="269" y="214"/>
      <point x="218" y="65" type="curve"/>
      <point x="201" y="101"/>
      <point x="128" y="353"/>
      <point x="119" y="413" type="curve"/>
      <point x="73" y="413"/>
      <point x="40" y="407"/>
      <point x="5" y="392" type="curve"/>
      <point x="23" y="374"/>
      <point x="45" y="328"/>
      <point x="63" y="272" type="curve" smooth="yes"/>
      <point x="82" y="208"/>
      <point x="99" y="144"/>
      <point x="121" y="73" type="curve" smooth="yes"/>
      <point x="137" y="19"/>
      <point x="164" y="-9"/>
      <point x="204" y="-9" type="curve"/>
    </contour>
    <contour>
      <point x="337" y="407" type="move" name="top"/>
    </contour>
    <contour>
      <point x="337" y="0" type="move" name="bottom"/>
    </contour>
  </outline>
</glyph>
<glyph name="x" format="1">
  <advance width="437"/>
  <unicode hex="0078"/>
  <outline>
    <contour>
      <point x="37" y="-6"/>
      <point x="68" y="-5"/>
      <point x="107" y="0" type="curve"/>
      <point x="111" y="18"/>
      <point x="125" y="46"/>
      <point x="205" y="155" type="curve"/>
      <point x="246" y="96"/>
      <point x="286" y="37"/>
      <point x="310" y="-6" type="curve"/>
      <point x="357" y="-6"/>
      <point x="393" y="-1"/>
      <point x="431" y="15" type="curve"/>
      <point x="400" y="42"/>
      <point x="331" y="130"/>
      <point x="265" y="222" type="curve"/>
      <point x="313" y="283"/>
      <point x="376" y="360"/>
      <point x="425" y="413" type="curve"/>
      <point x="393" y="413"/>
      <point x="362" y="411"/>
      <point x="323" y="402" type="curve"/>
      <point x="319" y="385"/>
      <point x="307" y="360"/>
      <point x="235" y="264" type="curve"/>
      <point x="197" y="320"/>
      <point x="162" y="372"/>
      <point x="138" y="413" type="curve"/>
      <point x="91" y="413"/>
      <point x="57" y="408"/>
      <point x="19" y="392" type="curve"/>
      <point x="49" y="365"/>
      <point x="112" y="285"/>
      <point x="174" y="198" type="curve"/>
      <point x="127" y="135"/>
      <point x="58" y="51"/>
      <point x="5" y="-6" type="curve"/>
    </contour>
    <contour>
      <point x="220" y="407" type="move" name="top"/>
    </contour>
    <contour>
      <point x="220" y="0" type="move" name="bottom"/>
    </contour>
  </outline>
</glyph>
<glyph name="braceleft" format="1">
  <advance width="354"/>
  <unicode hex="007B"/>
  <outline>
    <contour>
      <point x="319" y="-104"/>
      <point x="322" y="-90"/>
      <point x="322" y="-77" type="curve" smooth="yes"/>
      <point x="322" y="-63"/>
      <point x="319" y="-49"/>
      <point x="316" y="-34" type="curve"/>
      <point x="275" y="-40"/>
      <point x="240" y="-43"/>
      <point x="211" y="-43" type="curve"/>
      <point x="196" y="-21"/>
      <point x="183" y="12"/>
      <point x="183" y="78" type="curve" smooth="yes"/>
      <point x="183" y="103"/>
      <point x="185" y="129"/>
      <point x="185" y="154" type="curve" smooth="yes"/>
      <point x="185" y="208"/>
      <point x="177" y="254"/>
      <point x="130" y="262" type="curve"/>
      <point x="130" y="266" type="line"/>
      <point x="177" y="274"/>
      <point x="184" y="320"/>
      <point x="184" y="374" type="curve" smooth="yes"/>
      <point x="184" y="398"/>
      <point x="183" y="424"/>
      <point x="183" y="449" type="curve" smooth="yes"/>
      <point x="183" y="514"/>
      <point x="196" y="549"/>
      <point x="211" y="571" type="curve"/>
      <point x="240" y="571"/>
      <point x="275" y="568"/>
      <point x="316" y="562" type="curve"/>
      <point x="319" y="577"/>
      <point x="322" y="591"/>
      <point x="322" y="605" type="curve" smooth="yes"/>
      <point x="322" y="618"/>
      <point x="319" y="632"/>
      <point x="316" y="647" type="curve"/>
      <point x="179" y="647"/>
      <point x="85" y="612"/>
      <point x="85" y="474" type="curve" smooth="yes"/>
      <point x="85" y="434"/>
      <point x="103" y="364"/>
      <point x="103" y="326" type="curve" smooth="yes"/>
      <point x="103" y="307"/>
      <point x="87" y="285"/>
      <point x="47" y="284" type="curve"/>
      <point x="47" y="244" type="line"/>
      <point x="87" y="243"/>
      <point x="103" y="221"/>
      <point x="103" y="202" type="curve" smooth="yes"/>
      <point x="103" y="153"/>
      <point x="85" y="94"/>
      <point x="85" y="54" type="curve" smooth="yes"/>
      <point x="85" y="-84"/>
      <point x="179" y="-119"/>
      <point x="316" y="-119" type="curve"/>
    </contour>
  </outline>
</glyph>
<glyph name="asciitilde" format="1">
  <advance width="533"/>
  <unicode hex="007E"/>
  <outline>
    <contour>
      <point x="406" y="212"/>
      <point x="447" y="231"/>
      <point x="460" y="297" type="curve"/>
      <point x="442" y="306"/>
      <point x="420" y="312"/>
      <point x="401" y="313" type="curve"/>
      <point x="395" y="288"/>
      <point x="377" y="278"/>
      <point x="352" y="278" type="curve" smooth="yes"/>
      <point x="288" y="278"/>
      <point x="232" y="321"/>
      <point x="170" y="321" type="curve" smooth="yes"/>
      <point x="126" y="321"/>
      <point x="84" y="302"/>
      <point x="72" y="235" type="curve"/>
      <point x="90" y="226"/>
      <point x="112" y="221"/>
      <point x="131" y="219" type="curve"/>
      <point x="137" y="245"/>
      <point x="155" y="255"/>
      <point x="179" y="255" type="curve" smooth="yes"/>
      <point x="243" y="255"/>
      <point x="300" y="212"/>
      <point x="362" y="212" type="curve" smooth="yes"/>
    </contour>
  </outline>
</glyph>
<glyph name="cent" format="1">
  <advance width="412"/>
  <unicode hex="00A2"/>
  <outline>
    <contour>
      <point x="254" y="457" type="line"/>
      <point x="255" y="504"/>
      <point x="255" y="547"/>
      <point x="257" y="579" type="curve"/>
      <point x="248" y="582"/>
      <point x="235" y="584"/>
      <point x="226" y="584" type="curve" smooth="yes"/>
      <point x="215" y="584"/>
      <point x="203" y="581"/>
      <point x="195" y="579" type="curve"/>
      <point x="199" y="557"/>
      <point x="201" y="516"/>
      <point x="201" y="457" type="curve"/>
    </contour>
    <contour>
      <point x="240" y="-56"/>
      <point x="250" y="-55"/>
      <point x="260" y="-53" type="curve"/>
      <point x="256" y="-31"/>
      <point x="255" y="9"/>
      <point x="253" y="66" type="curve"/>
      <point x="201" y="66" type="line"/>
      <point x="200" y="20"/>
      <point x="199" y="-22"/>
      <point x="198" y="-53" type="curve"/>
      <point x="210" y="-55"/>
      <point x="220" y="-56"/>
      <point x="229" y="-56" type="curve" smooth="yes"/>
    </contour>
    <component base="c" yOffset="61"/>
  </outline>
</glyph>
<glyph name="sterling" format="1">
  <advance width="504"/>
  <unicode hex="00A3"/>
  <outline>
    <contour>
      <point x="439" y="11"/>
      <point x="448" y="59"/>
      <point x="448" y="96" type="curve"/>
      <point x="411" y="80"/>
      <point x="349" y="70"/>
      <point x="287" y="70" type="curve" smooth="yes"/>
      <point x="240" y="70"/>
      <point x="183" y="75"/>
      <point x="155" y="80" type="curve"/>
      <point x="185" y="123"/>
      <point x="194" y="170"/>
      <point x="194" y="217" type="curve" smooth="yes"/>
      <point x="194" y="285"/>
      <point x="175" y="353"/>
      <point x="175" y="405" type="curve" smooth="yes"/>
      <point x="175" y="449"/>
      <point x="199" y="477"/>
      <point x="248" y="485" type="curve"/>
      <point x="282" y="483"/>
      <point x="347" y="454"/>
      <point x="406" y="415" type="curve"/>
      <point x="420" y="436"/>
      <point x="433" y="480"/>
      <point x="433" y="509" type="curve"/>
      <point x="405" y="523"/>
      <point x="322" y="534"/>
      <point x="256" y="534" type="curve" smooth="yes"/>
      <point x="138" y="534"/>
      <point x="77" y="494"/>
      <point x="77" y="416" type="curve" smooth="yes"/>
      <point x="77" y="334"/>
      <point x="135" y="255"/>
      <point x="135" y="176" type="curve" smooth="yes"/>
      <point x="135" y="129"/>
      <point x="114" y="82"/>
      <point x="47" y="36" type="curve"/>
      <point x="47" y="0" type="line"/>
      <point x="86" y="2"/>
      <point x="149" y="3"/>
      <point x="216" y="3" type="curve" smooth="yes"/>
      <point x="305" y="3"/>
      <point x="405" y="0"/>
      <point x="426" y="-5" type="curve"/>
    </contour>
    <component base="uni0335"/>
  </outline>
</glyph>
<glyph name="currency" format="1">
  <advance width="586"/>
  <unicode hex="00A4"/>
  <outline>
    <contour>
      <point x="484" y="415"/>
      <point x="514" y="443"/>
      <point x="538" y="464" type="curve"/>
      <point x="528" y="487"/>
      <point x="515" y="494"/>
      <point x="494" y="509" type="curve"/>
      <point x="481" y="490"/>
      <point x="455" y="461"/>
      <point x="413" y="418" type="curve"/>
      <point x="449" y="381" type="line"/>
    </contour>
    <contour>
      <point x="104" y="36"/>
      <point x="131" y="66"/>
      <point x="170" y="107" type="curve"/>
      <point x="133" y="144" type="line"/>
      <point x="99" y="112"/>
      <point x="70" y="83"/>
      <point x="47" y="62" type="curve"/>
      <point x="57" y="46"/>
      <point x="76" y="29"/>
      <point x="91" y="18" type="curve"/>
    </contour>
    <contour>
      <point x="517" y="28"/>
      <point x="523" y="40"/>
      <point x="538" y="62" type="curve"/>
      <point x="520" y="75"/>
      <point x="490" y="102"/>
      <point x="447" y="144" type="curve"/>
      <point x="410" y="108" type="line"/>
      <point x="444" y="73"/>
      <point x="473" y="42"/>
      <point x="494" y="18" type="curve"/>
    </contour>
    <contour>
      <point x="173" y="424" type="line"/>
      <point x="140" y="457"/>
      <point x="112" y="486"/>
      <point x="91" y="509" type="curve"/>
      <point x="75" y="499"/>
      <point x="57" y="479"/>
      <point x="47" y="464" type="curve"/>
      <point x="65" y="452"/>
      <point x="94" y="426"/>
      <point x="135" y="386" type="curve"/>
    </contour>
    <component base="o" xOffset="48" yOffset="61"/>
  </outline>
</glyph>
<glyph name="section" format="1">
  <advance width="463"/>
  <unicode hex="00A7"/>
  <outline>
    <contour>
      <point x="338" y="-188"/>
      <point x="400" y="-141"/>
      <point x="400" y="-54" type="curve" smooth="yes"/>
      <point x="400" y="-8"/>
      <point x="377" y="28"/>
      <point x="328" y="59" type="curve"/>
      <point x="376" y="80"/>
      <point x="400" y="120"/>
      <point x="400" y="174" type="curve" smooth="yes"/>
      <point x="400" y="322"/>
      <point x="156" y="317"/>
      <point x="156" y="421" type="curve" smooth="yes"/>
      <point x="156" y="451"/>
      <point x="180" y="480"/>
      <point x="209" y="485" type="curve"/>
      <point x="243" y="485"/>
      <point x="301" y="459"/>
      <point x="353" y="421" type="curve"/>
      <point x="366" y="441"/>
      <point x="378" y="481"/>
      <point x="378" y="508" type="curve"/>
      <point x="343" y="522"/>
      <point x="299" y="530"/>
      <point x="249" y="530" type="curve" smooth="yes"/>
      <point x="140" y="530"/>
      <point x="68" y="483"/>
      <point x="68" y="412" type="curve" smooth="yes"/>
      <point x="68" y="361"/>
      <point x="94" y="322"/>
      <point x="152" y="287" type="curve"/>
      <point x="99" y="267"/>
      <point x="68" y="230"/>
      <point x="68" y="183" type="curve" smooth="yes"/>
      <point x="68" y="32"/>
      <point x="313" y="32"/>
      <point x="313" y="-65" type="curve" smooth="yes"/>
      <point x="313" y="-111"/>
      <point x="276" y="-137"/>
      <point x="213" y="-137" type="curve" smooth="yes"/>
      <point x="156" y="-137"/>
      <point x="106" y="-120"/>
      <point x="77" y="-91" type="curve"/>
      <point x="66" y="-111"/>
      <point x="62" y="-131"/>
      <point x="62" y="-155" type="curve"/>
      <point x="106" y="-177"/>
      <point x="161" y="-188"/>
      <point x="219" y="-188" type="curve" smooth="yes"/>
    </contour>
    <contour>
      <point x="183" y="134"/>
      <point x="157" y="158"/>
      <point x="157" y="194" type="curve" smooth="yes"/>
      <point x="157" y="223"/>
      <point x="181" y="251"/>
      <point x="210" y="257" type="curve"/>
      <point x="290" y="218"/>
      <point x="313" y="196"/>
      <point x="313" y="162" type="curve" smooth="yes"/>
      <point x="313" y="130"/>
      <point x="294" y="106"/>
      <point x="259" y="97" type="curve"/>
    </contour>
  </outline>
</glyph>
<glyph name="guillemotleft" format="1">
  <advance width="474"/>
  <unicode hex="00AB"/>
  <outline>
    <contour>
      <point x="397" y="62"/>
      <point x="414" y="82"/>
      <point x="432" y="106" type="curve"/>
      <point x="316" y="222" type="line"/>
      <point x="432" y="338" type="line"/>
      <point x="414" y="362"/>
      <point x="397" y="381"/>
      <point x="368" y="403" type="curve"/>
      <point x="327" y="342"/>
      <point x="286" y="295"/>
      <point x="228" y="232" type="curve"/>
      <point x="228" y="212" type="line"/>
      <point x="286" y="149"/>
      <point x="327" y="101"/>
      <point x="368" y="41" type="curve"/>
    </contour>
    <contour>
      <point x="201" y="62"/>
      <point x="218" y="82"/>
      <point x="235" y="106" type="curve"/>
      <point x="120" y="222" type="line"/>
      <point x="235" y="338" type="line"/>
      <point x="218" y="362"/>
      <point x="201" y="381"/>
      <point x="172" y="403" type="curve"/>
      <point x="131" y="342"/>
      <point x="90" y="295"/>
      <point x="32" y="232" type="curve"/>
      <point x="32" y="212" type="line"/>
      <point x="90" y="149"/>
      <point x="131" y="101"/>
      <point x="172" y="41" type="curve"/>
    </contour>
  </outline>
</glyph>
<glyph name="logicalnot" format="1">
  <advance width="533"/>
  <unicode hex="00AC"/>
  <outline>
    <contour>
      <point x="435" y="72"/>
      <point x="449" y="74"/>
      <point x="460" y="77" type="curve"/>
      <point x="457" y="135"/>
      <point x="456" y="197"/>
      <point x="456" y="303" type="curve"/>
      <point x="393" y="300"/>
      <point x="330" y="300"/>
      <point x="267" y="300" type="curve" smooth="yes"/>
      <point x="203" y="300"/>
      <point x="140" y="300"/>
      <point x="77" y="303" type="curve"/>
      <point x="74" y="291"/>
      <point x="72" y="277"/>
      <point x="72" y="265" type="curve" smooth="yes"/>
      <point x="72" y="252"/>
      <point x="74" y="239"/>
      <point x="77" y="228" type="curve"/>
      <point x="140" y="231"/>
      <point x="203" y="232"/>
      <point x="267" y="232" type="curve" smooth="yes"/>
      <point x="309" y="232"/>
      <point x="354" y="230"/>
      <point x="388" y="229" type="curve"/>
      <point x="388" y="179"/>
      <point x="386" y="129"/>
      <point x="384" y="77" type="curve"/>
      <point x="397" y="74"/>
      <point x="411" y="72"/>
      <point x="423" y="72" type="curve" smooth="yes"/>
    </contour>
  </outline>
</glyph>
<glyph name="registered" format="1">
  <advance width="567"/>
  <unicode hex="00AE"/>
  <outline>
    <contour>
      <point x="413" y="218"/>
      <point x="519" y="324"/>
      <point x="519" y="454" type="curve" smooth="yes"/>
      <point x="519" y="584"/>
      <point x="413" y="690"/>
      <point x="283" y="690" type="curve" smooth="yes"/>
      <point x="153" y="690"/>
      <point x="47" y="584"/>
      <point x="47" y="454" type="curve" smooth="yes"/>
      <point x="47" y="324"/>
      <point x="153" y="218"/>
      <point x="283" y="218" type="curve" smooth="yes"/>
    </contour>
    <contour>
      <point x="175" y="257"/>
      <point x="86" y="345"/>
      <point x="86" y="454" type="curve" smooth="yes"/>
      <point x="86" y="562"/>
      <point x="175" y="650"/>
      <point x="283" y="650" type="curve" smooth="yes"/>
      <point x="391" y="650"/>
      <point x="480" y="562"/>
      <point x="480" y="454" type="curve" smooth="yes"/>
      <point x="480" y="345"/>
      <point x="391" y="257"/>
      <point x="283" y="257" type="curve" smooth="yes"/>
    </contour>
    <contour>
      <point x="226" y="323"/>
      <point x="236" y="324"/>
      <point x="246" y="326" type="curve"/>
      <point x="241" y="339"/>
      <point x="238" y="371"/>
      <point x="237" y="420" type="curve"/>
      <point x="247" y="417"/>
      <point x="262" y="416"/>
      <point x="292" y="416" type="curve"/>
      <point x="316" y="374"/>
      <point x="335" y="339"/>
      <point x="342" y="323" type="curve"/>
      <point x="366" y="323"/>
      <point x="386" y="325"/>
      <point x="406" y="333" type="curve"/>
      <point x="386" y="348"/>
      <point x="363" y="385"/>
      <point x="340" y="428" type="curve"/>
      <point x="374" y="443"/>
      <point x="394" y="470"/>
      <point x="394" y="504" type="curve" smooth="yes"/>
      <point x="394" y="560"/>
      <point x="354" y="592"/>
      <point x="282" y="592" type="curve" smooth="yes"/>
      <point x="244" y="592"/>
      <point x="205" y="586"/>
      <point x="183" y="578" type="curve"/>
      <point x="188" y="565"/>
      <point x="191" y="531"/>
      <point x="191" y="476" type="curve" smooth="yes"/>
      <point x="191" y="429"/>
      <point x="189" y="358"/>
      <point x="185" y="326" type="curve"/>
      <point x="195" y="324"/>
      <point x="207" y="323"/>
      <point x="216" y="323" type="curve" smooth="yes"/>
    </contour>
    <contour>
      <point x="283" y="442"/>
      <point x="259" y="447"/>
      <point x="237" y="454" type="curve"/>
      <point x="241" y="554" type="line"/>
      <point x="250" y="557"/>
      <point x="261" y="558"/>
      <point x="271" y="558" type="curve" smooth="yes"/>
      <point x="316" y="558"/>
      <point x="343" y="541"/>
      <point x="343" y="500" type="curve" smooth="yes"/>
      <point x="343" y="472"/>
      <point x="322" y="451"/>
      <point x="297" y="442" type="curve"/>
    </contour>
  </outline>
</glyph>
<glyph name="AE" format="1">
  <advance width="688"/>
  <unicode hex="00C6"/>
  <outline>
    <contour>
      <point x="55" y="-4"/>
      <point x="66" y="-2"/>
      <point x="79" y="2" type="curve"/>
      <point x="89" y="32"/>
      <point x="105" y="79"/>
      <point x="124" y="131" type="curve"/>
      <point x="146" y="135"/>
      <point x="179" y="136"/>
      <point x="225" y="136" type="curve" smooth="yes"/>
      <point x="264" y="136"/>
      <point x="308" y="135"/>
      <point x="343" y="132" type="curve"/>
      <point x="362" y="79"/>
      <point x="378" y="32"/>
      <point x="388" y="2" type="curve"/>
      <point x="423" y="3"/>
      <point x="478" y="4"/>
      <point x="537" y="4" type="curve" smooth="yes"/>
      <point x="577" y="4"/>
      <point x="618" y="1"/>
      <point x="644" y="-3" type="curve"/>
      <point x="657" y="13"/>
      <point x="665" y="65"/>
      <point x="665" y="98" type="curve"/>
      <point x="609" y="74"/>
      <point x="569" y="73"/>
      <point x="466" y="73" type="curve"/>
      <point x="447" y="118"/>
      <point x="424" y="175"/>
      <point x="401" y="235" type="curve"/>
      <point x="474" y="235"/>
      <point x="513" y="234"/>
      <point x="585" y="228" type="curve"/>
      <point x="588" y="242"/>
      <point x="589" y="255"/>
      <point x="589" y="266" type="curve" smooth="yes"/>
      <point x="589" y="279"/>
      <point x="588" y="291"/>
      <point x="585" y="303" type="curve"/>
      <point x="548" y="296"/>
      <point x="524" y="292"/>
      <point x="455" y="292" type="curve" smooth="yes"/>
      <point x="431" y="292"/>
      <point x="403" y="294"/>
      <point x="378" y="295" type="curve"/>
      <point x="323" y="444" type="line"/>
      <point x="357" y="449"/>
      <point x="404" y="453"/>
      <point x="445" y="453" type="curve" smooth="yes"/>
      <point x="495" y="453"/>
      <point x="551" y="444"/>
      <point x="585" y="426" type="curve"/>
      <point x="598" y="443"/>
      <point x="606" y="494"/>
      <point x="606" y="527" type="curve"/>
      <point x="553" y="522"/>
      <point x="476" y="520"/>
      <point x="400" y="520" type="curve" smooth="yes"/>
      <point x="326" y="520"/>
      <point x="253" y="522"/>
      <point x="209" y="527" type="curve"/>
      <point x="170" y="409"/>
      <point x="46" y="75"/>
      <point x="5" y="2" type="curve"/>
      <point x="19" y="-2"/>
      <point x="32" y="-4"/>
      <point x="45" y="-4" type="curve" smooth="yes"/>
    </contour>
    <contour>
      <point x="224" y="190"/>
      <point x="182" y="192"/>
      <point x="148" y="194" type="curve"/>
      <point x="178" y="275"/>
      <point x="209" y="359"/>
      <point x="234" y="415" type="curve"/>
      <point x="255" y="366"/>
      <point x="289" y="277"/>
      <point x="321" y="192" type="curve"/>
      <point x="305" y="191"/>
      <point x="283" y="190"/>
      <point x="261" y="190" type="curve" smooth="yes"/>
    </contour>
    <contour>
      <point x="349" y="527" type="move" name="top"/>
    </contour>
    <contour>
      <point x="349" y="0" type="move" name="bottom"/>
    </contour>
  </outline>
</glyph>
<glyph name="Thorn" format="1">
  <advance width="481"/>
  <unicode hex="00DE"/>
  <outline>
    <contour>
      <point x="142" y="-6"/>
      <point x="161" y="-4"/>
      <point x="179" y="0" type="curve"/>
      <point x="173" y="16"/>
      <point x="169" y="45"/>
      <point x="166" y="87" type="curve"/>
      <point x="188" y="82"/>
      <point x="212" y="80"/>
      <point x="236" y="80" type="curve" smooth="yes"/>
      <point x="364" y="80"/>
      <point x="453" y="160"/>
      <point x="453" y="276" type="curve" smooth="yes"/>
      <point x="453" y="389"/>
      <point x="379" y="452"/>
      <point x="246" y="452" type="curve" smooth="yes"/>
      <point x="220" y="452"/>
      <point x="193" y="450"/>
      <point x="169" y="446" type="curve"/>
      <point x="170" y="478"/>
      <point x="172" y="506"/>
      <point x="174" y="527" type="curve"/>
      <point x="152" y="531"/>
      <point x="133" y="533"/>
      <point x="116" y="533" type="curve" smooth="yes"/>
      <point x="99" y="533"/>
      <point x="80" y="531"/>
      <point x="62" y="527" type="curve"/>
      <point x="73" y="497"/>
      <point x="78" y="421"/>
      <point x="78" y="302" type="curve" smooth="yes"/>
      <point x="78" y="196"/>
      <point x="73" y="65"/>
      <point x="67" y="0" type="curve"/>
      <point x="89" y="-4"/>
      <point x="107" y="-6"/>
      <point x="124" y="-6" type="curve" smooth="yes"/>
    </contour>
    <contour>
      <point x="248" y="131"/>
      <point x="207" y="140"/>
      <point x="165" y="153" type="curve"/>
      <point x="162" y="173"/>
      <point x="163" y="334"/>
      <point x="167" y="378" type="curve"/>
      <point x="186" y="384"/>
      <point x="206" y="387"/>
      <point x="226" y="387" type="curve" smooth="yes"/>
      <point x="310" y="387"/>
      <point x="359" y="351"/>
      <point x="359" y="268" type="curve" smooth="yes"/>
      <point x="359" y="205"/>
      <point x="321" y="151"/>
      <point x="274" y="131" type="curve"/>
    </contour>
    <contour>
      <point x="240" y="527" type="move" name="top"/>
    </contour>
    <contour>
      <point x="240" y="0" type="move" name="bottom"/>
    </contour>
  </outline>
</glyph>
<glyph name="dotlessi" format="1">
  <advance width="244"/>
  <unicode hex="0131"/>
  <outline>
    <contour>
      <point x="148" y="-9"/>
      <point x="176" y="0"/>
      <point x="199" y="27" type="curve"/>
      <point x="168" y="61"/>
      <point x="160" y="84"/>
      <point x="160" y="192" type="curve" smooth="yes"/>
      <point x="160" y="294"/>
      <point x="165" y="379"/>
      <point x="172" y="417" type="curve"/>
      <point x="134" y="417"/>
      <point x="101" y="413"/>
      <point x="62" y="397" type="curve"/>
      <point x="75" y="376"/>
      <point x="81" y="322"/>
      <point x="81" y="272" type="curve" smooth="yes"/>
      <point x="81" y="208"/>
      <point x="77" y="144"/>
      <point x="77" y="73" type="curve" smooth="yes"/>
      <point x="77" y="10"/>
      <point x="92" y="-9"/>
      <point x="131" y="-9" type="curve" smooth="yes"/>
    </contour>
    <contour>
      <point x="166" y="0" type="move" name="ogonek"/>
    </contour>
    <contour>
      <point x="124" y="0" type="move" name="bottom"/>
    </contour>
    <contour>
      <point x="119" y="407" type="move" name="top"/>
    </contour>
  </outline>
</glyph>
<glyph name="eng" format="1">
  <advance width="524"/>
  <unicode hex="014B"/>
  <outline>
    <contour>
      <point x="380" y="-111"/>
      <point x="438" y="-63"/>
      <point x="438" y="63" type="curve" smooth="yes"/>
      <point x="438" y="115"/>
      <point x="442" y="232"/>
      <point x="442" y="280" type="curve" smooth="yes"/>
      <point x="442" y="362"/>
      <point x="412" y="418"/>
      <point x="325" y="418" type="curve" smooth="yes"/>
      <point x="277" y="418"/>
      <point x="227" y="394"/>
      <point x="192" y="354" type="curve"/>
      <point x="187" y="392"/>
      <point x="168" y="414"/>
      <point x="131" y="414" type="curve" smooth="yes"/>
      <point x="114" y="414"/>
      <point x="86" y="405"/>
      <point x="64" y="378" type="curve"/>
      <point x="95" y="344"/>
      <point x="103" y="321"/>
      <point x="103" y="213" type="curve" smooth="yes"/>
      <point x="103" y="139"/>
      <point x="100" y="57"/>
      <point x="96" y="0" type="curve"/>
      <point x="119" y="-4"/>
      <point x="136" y="-6"/>
      <point x="152" y="-6" type="curve" smooth="yes"/>
      <point x="171" y="-6"/>
      <point x="189" y="-4"/>
      <point x="208" y="0" type="curve"/>
      <point x="195" y="29"/>
      <point x="188" y="82"/>
      <point x="188" y="150" type="curve" smooth="yes"/>
      <point x="188" y="217"/>
      <point x="192" y="272"/>
      <point x="193" y="314" type="curve"/>
      <point x="218" y="330"/>
      <point x="248" y="337"/>
      <point x="283" y="337" type="curve" smooth="yes"/>
      <point x="333" y="337"/>
      <point x="353" y="315"/>
      <point x="353" y="262" type="curve" smooth="yes"/>
      <point x="353" y="106" type="line" smooth="yes"/>
      <point x="353" y="-56"/>
      <point x="320" y="-112"/>
      <point x="254" y="-174" type="curve"/>
      <point x="263" y="-189" type="line"/>
    </contour>
  </outline>
</glyph>
<glyph name="OE" format="1">
  <advance width="806"/>
  <unicode hex="0152"/>
  <outline>
    <contour>
      <point x="411" y="-6"/>
      <point x="464" y="4"/>
      <point x="559" y="4" type="curve" smooth="yes"/>
      <point x="627" y="4"/>
      <point x="696" y="2"/>
      <point x="743" y="-3" type="curve"/>
      <point x="756" y="13"/>
      <point x="764" y="65"/>
      <point x="764" y="98" type="curve"/>
      <point x="725" y="81"/>
      <point x="661" y="71"/>
      <point x="604" y="71" type="curve" smooth="yes"/>
      <point x="567" y="71"/>
      <point x="527" y="75"/>
      <point x="498" y="81" type="curve"/>
      <point x="496" y="101"/>
      <point x="494" y="206"/>
      <point x="494" y="235" type="curve"/>
      <point x="577" y="235"/>
      <point x="614" y="234"/>
      <point x="708" y="228" type="curve"/>
      <point x="711" y="242"/>
      <point x="712" y="255"/>
      <point x="712" y="266" type="curve" smooth="yes"/>
      <point x="712" y="279"/>
      <point x="711" y="291"/>
      <point x="708" y="303" type="curve"/>
      <point x="671" y="296"/>
      <point x="647" y="292"/>
      <point x="578" y="292" type="curve" smooth="yes"/>
      <point x="552" y="292"/>
      <point x="522" y="293"/>
      <point x="495" y="295" type="curve"/>
      <point x="496" y="347"/>
      <point x="498" y="400"/>
      <point x="501" y="444" type="curve"/>
      <point x="528" y="449"/>
      <point x="565" y="453"/>
      <point x="599" y="453" type="curve" smooth="yes"/>
      <point x="649" y="453"/>
      <point x="705" y="444"/>
      <point x="739" y="426" type="curve"/>
      <point x="752" y="443"/>
      <point x="760" y="494"/>
      <point x="760" y="527" type="curve"/>
      <point x="707" y="522"/>
      <point x="630" y="520"/>
      <point x="554" y="520" type="curve" smooth="yes"/>
      <point x="452" y="520"/>
      <point x="406" y="532"/>
      <point x="317" y="532" type="curve" smooth="yes"/>
      <point x="140" y="532"/>
      <point x="42" y="437"/>
      <point x="42" y="266" type="curve" smooth="yes"/>
      <point x="42" y="105"/>
      <point x="162" y="-6"/>
      <point x="336" y="-6" type="curve" smooth="yes"/>
    </contour>
    <contour>
      <point x="205" y="58"/>
      <point x="137" y="153"/>
      <point x="137" y="248" type="curve" smooth="yes"/>
      <point x="137" y="402"/>
      <point x="211" y="467"/>
      <point x="337" y="467" type="curve" smooth="yes"/>
      <point x="360" y="467"/>
      <point x="383" y="464"/>
      <point x="404" y="457" type="curve"/>
      <point x="407" y="418"/>
      <point x="409" y="365"/>
      <point x="409" y="300" type="curve" smooth="yes"/>
      <point x="409" y="224"/>
      <point x="406" y="133"/>
      <point x="402" y="64" type="curve"/>
      <point x="358" y="52"/>
      <point x="316" y="45"/>
      <point x="289" y="45" type="curve"/>
    </contour>
    <contour>
      <point x="403" y="527" type="move" name="top"/>
    </contour>
    <contour>
      <point x="403" y="0" type="move" name="bottom"/>
    </contour>
  </outline>
</glyph>
<glyph name="uni0304" format="1">
  <advance width="295"/>
  <unicode hex="0304"/>
  <outline>
    <contour>
      <point x="48" y="513"/>
      <point x="106" y="519"/>
      <point x="156" y="519" type="curve" smooth="yes"/>
      <point x="191" y="519"/>
      <point x="226" y="518"/>
      <point x="264" y="515" type="curve"/>
      <point x="273" y="543"/>
      <point x="275" y="567"/>
      <point x="271" y="595" type="curve"/>
      <point x="248" y="589"/>
      <point x="189" y="582"/>
      <point x="139" y="582" type="curve" smooth="yes"/>
      <point x="105" y="582"/>
      <point x="70" y="583"/>
      <point x="32" y="586" type="curve"/>
      <point x="23" y="559"/>
      <point x="21" y="534"/>
      <point x="25" y="506" type="curve"/>
    </contour>
    <contour>
      <point x="148" y="597" type="move" name="top"/>
    </contour>
    <contour>
      <point x="148" y="407" type="move" name="_top"/>
    </contour>
  </outline>
</glyph>
<glyph name="uni030B" format="1">
  <advance width="352"/>
  <unicode hex="030B"/>
  <outline>
    <contour>
      <point x="262" y="494"/>
      <point x="315" y="522"/>
      <point x="353" y="562" type="curve"/>
      <point x="338" y="591"/>
      <point x="308" y="604"/>
      <point x="259" y="604" type="curve"/>
      <point x="250" y="568"/>
      <point x="217" y="525"/>
      <point x="177" y="504" type="curve"/>
      <point x="185" y="480" type="line"/>
    </contour>
    <contour>
      <point x="85" y="494"/>
      <point x="138" y="522"/>
      <point x="176" y="562" type="curve"/>
      <point x="161" y="591"/>
      <point x="131" y="604"/>
      <point x="82" y="604" type="curve"/>
      <point x="73" y="568"/>
      <point x="40" y="525"/>
      <point x="0" y="504" type="curve"/>
      <point x="8" y="480" type="line"/>
    </contour>
    <contour>
      <point x="177" y="604" type="move" name="top"/>
    </contour>
    <contour>
      <point x="147" y="407" type="move" name="_top"/>
    </contour>
  </outline>
</glyph>
<glyph name="uni030C" format="1">
  <advance width="267"/>
  <unicode hex="030C"/>
  <outline>
    <contour>
      <point x="121" y="475"/>
      <point x="148" y="478"/>
      <point x="176" y="489" type="curve"/>
      <point x="200" y="525"/>
      <point x="239" y="575"/>
      <point x="267" y="609" type="curve"/>
      <point x="243" y="615"/>
      <point x="223" y="617"/>
      <point x="205" y="617" type="curve"/>
      <point x="149" y="531" type="line"/>
      <point x="91" y="617" type="line"/>
      <point x="56" y="617"/>
      <point x="29" y="613"/>
      <point x="0" y="603" type="curve"/>
      <point x="36" y="561"/>
      <point x="51" y="540"/>
      <point x="87" y="475" type="curve"/>
    </contour>
    <contour>
      <point x="133" y="617" type="move" name="top"/>
    </contour>
    <contour>
      <point x="121" y="407" type="move" name="_top"/>
    </contour>
  </outline>
</glyph>
<glyph name="uni0328" format="1">
  <advance width="209"/>
  <unicode hex="0328"/>
  <outline>
    <contour>
      <point x="143" y="-211"/>
      <point x="184" y="-189"/>
      <point x="205" y="-159" type="curve"/>
      <point x="197" y="-137" type="line"/>
      <point x="179" y="-153"/>
      <point x="155" y="-163"/>
      <point x="133" y="-163" type="curve" smooth="yes"/>
      <point x="94" y="-163"/>
      <point x="72" y="-140"/>
      <point x="72" y="-102" type="curve" smooth="yes"/>
      <point x="72" y="-53"/>
      <point x="99" y="-17"/>
      <point x="150" y="0" type="curve"/>
      <point x="64" y="0"/>
      <point x="6" y="-48"/>
      <point x="6" y="-118" type="curve" smooth="yes"/>
      <point x="6" y="-177"/>
      <point x="41" y="-211"/>
      <point x="102" y="-211" type="curve" smooth="yes"/>
    </contour>
    <contour>
      <point x="149" y="0" type="move" name="_ogonek"/>
    </contour>
  </outline>
</glyph>
<glyph name="uni0335" format="1">
  <advance width="415"/>
  <unicode hex="0335"/>
  <outline>
    <contour>
      <point x="101" y="232"/>
      <point x="124" y="236"/>
      <point x="201" y="236" type="curve" smooth="yes"/>
      <point x="254" y="236"/>
      <point x="321" y="233"/>
      <point x="357" y="228" type="curve"/>
      <point x="359" y="240"/>
      <point x="361" y="255"/>
      <point x="361" y="266" type="curve" smooth="yes"/>
      <point x="361" y="279"/>
      <point x="359" y="292"/>
      <point x="357" y="303" type="curve"/>
      <point x="317" y="296"/>
      <point x="290" y="292"/>
      <point x="214" y="292" type="curve" smooth="yes"/>
      <point x="160" y="292"/>
      <point x="95" y="295"/>
      <point x="58" y="300" type="curve"/>
      <point x="55" y="288"/>
      <point x="53" y="274"/>
      <point x="53" y="262" type="curve" smooth="yes"/>
      <point x="53" y="249"/>
      <point x="55" y="236"/>
      <point x="58" y="225" type="curve"/>
    </contour>
    <contour>
      <point x="208" y="264" type="move" name="_center"/>
    </contour>
  </outline>
</glyph>
<glyph name="uni0394" format="1">
  <advance width="503"/>
  <unicode hex="0394"/>
  <outline>
    <contour>
      <point x="87" y="3"/>
      <point x="170" y="4"/>
      <point x="251" y="4" type="curve" smooth="yes"/>
      <point x="334" y="4"/>
      <point x="416" y="3"/>
      <point x="497" y="0" type="curve"/>
      <point x="475" y="46"/>
      <point x="351" y="356"/>
      <point x="294" y="529" type="curve"/>
      <point x="281" y="532"/>
      <point x="267" y="534"/>
      <point x="253" y="534" type="curve" smooth="yes"/>
      <point x="239" y="534"/>
      <point x="226" y="532"/>
      <point x="210" y="529" type="curve"/>
      <point x="171" y="411"/>
      <point x="46" y="83"/>
      <point x="5" y="0" type="curve"/>
    </contour>
    <contour>
      <point x="206" y="72"/>
      <point x="154" y="73"/>
      <point x="102" y="75" type="curve"/>
      <point x="139" y="177"/>
      <point x="196" y="329"/>
      <point x="233" y="416" type="curve"/>
      <point x="267" y="341"/>
      <point x="327" y="180"/>
      <point x="365" y="73" type="curve"/>
      <point x="327" y="72"/>
      <point x="288" y="72"/>
      <point x="251" y="72" type="curve" smooth="yes"/>
    </contour>
  </outline>
</glyph>
<glyph name="uni03BC" format="1">
  <advance width="494"/>
  <unicode hex="03BC"/>
  <outline>
    <contour>
      <point x="146" y="-180"/>
      <point x="175" y="-172"/>
      <point x="199" y="-145" type="curve"/>
      <point x="171" y="-110"/>
      <point x="162" y="-87"/>
      <point x="160" y="10" type="curve"/>
      <point x="178" y="3"/>
      <point x="196" y="0"/>
      <point x="213" y="0" type="curve" smooth="yes"/>
      <point x="266" y="0"/>
      <point x="314" y="27"/>
      <point x="331" y="51" type="curve"/>
      <point x="343" y="17"/>
      <point x="361" y="0"/>
      <point x="386" y="0" type="curve" smooth="yes"/>
      <point x="403" y="0"/>
      <point x="424" y="8"/>
      <point x="451" y="25" type="curve"/>
      <point x="419" y="60"/>
      <point x="412" y="82"/>
      <point x="412" y="132" type="curve" smooth="yes"/>
      <point x="412" y="171"/>
      <point x="418" y="324"/>
      <point x="424" y="417" type="curve"/>
      <point x="386" y="417"/>
      <point x="355" y="411"/>
      <point x="328" y="397" type="curve"/>
      <point x="328" y="94" type="line"/>
      <point x="300" y="71"/>
      <point x="267" y="60"/>
      <point x="228" y="60" type="curve" smooth="yes"/>
      <point x="181" y="60"/>
      <point x="161" y="83"/>
      <point x="161" y="139" type="curve" smooth="yes"/>
      <point x="161" y="414" type="line"/>
      <point x="123" y="414"/>
      <point x="94" y="409"/>
      <point x="64" y="397" type="curve"/>
      <point x="77" y="368"/>
      <point x="83" y="322"/>
      <point x="83" y="257" type="curve" smooth="yes"/>
      <point x="83" y="96"/>
      <point x="76" y="-18"/>
      <point x="76" y="-98" type="curve" smooth="yes"/>
      <point x="76" y="-149"/>
      <point x="91" y="-180"/>
      <point x="130" y="-180" type="curve" smooth="yes"/>
    </contour>
  </outline>
</glyph>
<glyph name="pi" format="1">
  <advance width="528"/>
  <unicode hex="03C0"/>
  <outline>
    <contour>
      <point x="163" y="-6"/>
      <point x="181" y="-4"/>
      <point x="199" y="-1" type="curve"/>
      <point x="188" y="22"/>
      <point x="183" y="83"/>
      <point x="183" y="176" type="curve" smooth="yes"/>
      <point x="183" y="225"/>
      <point x="184" y="282"/>
      <point x="187" y="331" type="curve"/>
      <point x="342" y="331" type="line"/>
      <point x="343" y="303"/>
      <point x="344" y="272"/>
      <point x="344" y="233" type="curve" smooth="yes"/>
      <point x="344" y="151"/>
      <point x="339" y="49"/>
      <point x="334" y="-1" type="curve"/>
      <point x="354" y="-4"/>
      <point x="372" y="-6"/>
      <point x="388" y="-6" type="curve" smooth="yes"/>
      <point x="405" y="-6"/>
      <point x="423" y="-4"/>
      <point x="441" y="-1" type="curve"/>
      <point x="430" y="22"/>
      <point x="425" y="83"/>
      <point x="425" y="176" type="curve" smooth="yes"/>
      <point x="425" y="224"/>
      <point x="426" y="283"/>
      <point x="430" y="331" type="curve"/>
      <point x="473" y="327" type="line"/>
      <point x="490" y="363"/>
      <point x="494" y="391"/>
      <point x="494" y="426" type="curve"/>
      <point x="452" y="416"/>
      <point x="358" y="407"/>
      <point x="274" y="407" type="curve" smooth="yes"/>
      <point x="201" y="407"/>
      <point x="131" y="408"/>
      <point x="54" y="412" type="curve"/>
      <point x="37" y="376"/>
      <point x="32" y="347"/>
      <point x="32" y="313" type="curve"/>
      <point x="48" y="317"/>
      <point x="71" y="321"/>
      <point x="99" y="324" type="curve"/>
      <point x="102" y="297"/>
      <point x="102" y="267"/>
      <point x="102" y="233" type="curve" smooth="yes"/>
      <point x="102" y="151"/>
      <point x="97" y="49"/>
      <point x="90" y="-1" type="curve"/>
      <point x="112" y="-4"/>
      <point x="130" y="-6"/>
      <point x="145" y="-6" type="curve" smooth="yes"/>
    </contour>
  </outline>
</glyph>
<glyph name="emdash" format="1">
  <advance width="755"/>
  <unicode hex="2014"/>
  <outline>
    <contour>
      <point x="137" y="151"/>
      <point x="265" y="160"/>
      <point x="388" y="160" type="curve" smooth="yes"/>
      <point x="486" y="160"/>
      <point x="585" y="159"/>
      <point x="696" y="155" type="curve"/>
      <point x="696" y="190"/>
      <point x="689" y="220"/>
      <point x="666" y="255" type="curve"/>
      <point x="614" y="245"/>
      <point x="485" y="236"/>
      <point x="364" y="236" type="curve" smooth="yes"/>
      <point x="265" y="236"/>
      <point x="166" y="237"/>
      <point x="58" y="241" type="curve"/>
      <point x="58" y="206"/>
      <point x="65" y="176"/>
      <point x="86" y="141" type="curve"/>
    </contour>
  </outline>
</glyph>
<glyph name="Euro" format="1">
  <advance width="508"/>
  <unicode hex="20AC"/>
  <outline>
    <contour>
      <point x="339" y="-11"/>
      <point x="413" y="25"/>
      <point x="454" y="78" type="curve"/>
      <point x="447" y="103" type="line"/>
      <point x="409" y="79"/>
      <point x="356" y="67"/>
      <point x="298" y="67" type="curve" smooth="yes"/>
      <point x="212" y="67"/>
      <point x="149" y="126"/>
      <point x="149" y="269" type="curve" smooth="yes"/>
      <point x="149" y="368"/>
      <point x="200" y="467"/>
      <point x="262" y="484" type="curve"/>
      <point x="296" y="484"/>
      <point x="363" y="454"/>
      <point x="414" y="415" type="curve"/>
      <point x="429" y="438"/>
      <point x="441" y="481"/>
      <point x="441" y="509" type="curve"/>
      <point x="403" y="525"/>
      <point x="358" y="533"/>
      <point x="306" y="533" type="curve" smooth="yes"/>
      <point x="159" y="533"/>
      <point x="56" y="413"/>
      <point x="56" y="241" type="curve" smooth="yes"/>
      <point x="56" y="79"/>
      <point x="133" y="-11"/>
      <point x="269" y="-11" type="curve" smooth="yes"/>
    </contour>
    <component base="uni0335" xOffset="-49" yOffset="62" xScale="1.008" yScale="1.008"/>
    <component base="uni0335" xOffset="-54" yOffset="-68" xScale="1.008" yScale="1.008"/>
    <contour>
      <point x="264" y="527" type="move" name="top"/>
    </contour>
    <contour>
      <point x="246" y="0" type="move" name="bottom"/>
    </contour>
  </outline>
</glyph>
<glyph name="uni2113" format="1">
  <advance width="292"/>
  <unicode hex="2113"/>
  <outline>
    <contour>
      <point x="218" y="-9"/>
      <point x="258" y="49"/>
      <point x="258" y="127" type="curve"/>
      <point x="240" y="127" type="line"/>
      <point x="240" y="81"/>
      <point x="218" y="44"/>
      <point x="192" y="42" type="curve"/>
      <point x="185" y="70"/>
      <point x="183" y="104"/>
      <point x="183" y="192" type="curve" smooth="yes"/>
      <point x="183" y="243" type="line"/>
      <point x="232" y="298"/>
      <point x="254" y="370"/>
      <point x="254" y="430" type="curve" smooth="yes"/>
      <point x="254" y="496"/>
      <point x="227" y="547"/>
      <point x="185" y="547" type="curve" smooth="yes"/>
      <point x="150" y="547"/>
      <point x="124" y="536"/>
      <point x="104" y="518" type="curve"/>
      <point x="104" y="317" type="line" smooth="yes"/>
      <point x="104" y="232"/>
      <point x="100" y="156"/>
      <point x="100" y="81" type="curve" smooth="yes"/>
      <point x="100" y="11"/>
      <point x="115" y="-9"/>
      <point x="154" y="-9" type="curve" smooth="yes"/>
    </contour>
    <contour>
      <point x="183" y="510" type="line"/>
      <point x="210" y="510"/>
      <point x="236" y="477"/>
      <point x="236" y="430" type="curve" smooth="yes"/>
      <point x="236" y="373"/>
      <point x="216" y="318"/>
      <point x="183" y="274" type="curve"/>
    </contour>
  </outline>
</glyph>
<glyph name="trademark" format="1">
  <advance width="695"/>
  <unicode hex="2122"/>
  <outline>
    <contour>
      <point x="336" y="323"/>
      <point x="344" y="324"/>
      <point x="351" y="326" type="curve"/>
      <point x="347" y="341"/>
      <point x="345" y="380"/>
      <point x="345" y="440" type="curve" smooth="yes"/>
      <point x="345" y="466"/>
      <point x="345" y="494"/>
      <point x="346" y="520" type="curve"/>
      <point x="380" y="455"/>
      <point x="424" y="366"/>
      <point x="442" y="326" type="curve"/>
      <point x="445" y="325"/>
      <point x="449" y="324"/>
      <point x="453" y="324" type="curve" smooth="yes"/>
      <point x="457" y="324"/>
      <point x="461" y="325"/>
      <point x="464" y="326" type="curve"/>
      <point x="485" y="369"/>
      <point x="532" y="468"/>
      <point x="569" y="533" type="curve"/>
      <point x="569" y="518"/>
      <point x="570" y="498"/>
      <point x="570" y="476" type="curve" smooth="yes"/>
      <point x="570" y="424"/>
      <point x="567" y="359"/>
      <point x="564" y="326" type="curve"/>
      <point x="575" y="324"/>
      <point x="586" y="323"/>
      <point x="595" y="323" type="curve" smooth="yes"/>
      <point x="604" y="323"/>
      <point x="615" y="324"/>
      <point x="624" y="326" type="curve"/>
      <point x="618" y="341"/>
      <point x="615" y="380"/>
      <point x="615" y="440" type="curve" smooth="yes"/>
      <point x="615" y="492"/>
      <point x="618" y="557"/>
      <point x="621" y="590" type="curve"/>
      <point x="610" y="592"/>
      <point x="599" y="593"/>
      <point x="591" y="593" type="curve" smooth="yes"/>
      <point x="578" y="593"/>
      <point x="567" y="592"/>
      <point x="561" y="590" type="curve"/>
      <point x="541" y="549"/>
      <point x="493" y="451"/>
      <point x="463" y="394" type="curve"/>
      <point x="434" y="446"/>
      <point x="384" y="549"/>
      <point x="366" y="590" type="curve"/>
      <point x="353" y="592"/>
      <point x="344" y="593"/>
      <point x="335" y="593" type="curve" smooth="yes"/>
      <point x="324" y="593"/>
      <point x="315" y="592"/>
      <point x="306" y="590" type="curve"/>
      <point x="310" y="573"/>
      <point x="312" y="542"/>
      <point x="312" y="477" type="curve" smooth="yes"/>
      <point x="312" y="425"/>
      <point x="310" y="359"/>
      <point x="308" y="326" type="curve"/>
      <point x="316" y="324"/>
      <point x="324" y="323"/>
      <point x="330" y="323" type="curve" smooth="yes"/>
    </contour>
    <contour>
      <point x="162" y="323"/>
      <point x="173" y="324"/>
      <point x="183" y="326" type="curve"/>
      <point x="177" y="341"/>
      <point x="174" y="379"/>
      <point x="174" y="440" type="curve" smooth="yes"/>
      <point x="174" y="475"/>
      <point x="176" y="518"/>
      <point x="178" y="549" type="curve"/>
      <point x="210" y="549"/>
      <point x="243" y="547"/>
      <point x="262" y="546" type="curve"/>
      <point x="264" y="555"/>
      <point x="265" y="563"/>
      <point x="265" y="569" type="curve" smooth="yes"/>
      <point x="265" y="577"/>
      <point x="264" y="585"/>
      <point x="262" y="591" type="curve"/>
      <point x="249" y="587"/>
      <point x="218" y="585"/>
      <point x="167" y="585" type="curve" smooth="yes"/>
      <point x="122" y="585"/>
      <point x="68" y="587"/>
      <point x="40" y="589" type="curve"/>
      <point x="38" y="580"/>
      <point x="37" y="572"/>
      <point x="37" y="565" type="curve" smooth="yes"/>
      <point x="37" y="559"/>
      <point x="38" y="550"/>
      <point x="40" y="544" type="curve"/>
      <point x="52" y="548"/>
      <point x="80" y="550"/>
      <point x="126" y="550" type="curve"/>
      <point x="128" y="532"/>
      <point x="129" y="507"/>
      <point x="129" y="476" type="curve" smooth="yes"/>
      <point x="129" y="425"/>
      <point x="126" y="359"/>
      <point x="123" y="326" type="curve"/>
      <point x="134" y="324"/>
      <point x="145" y="323"/>
      <point x="153" y="323" type="curve" smooth="yes"/>
    </contour>
  </outline>
</glyph>
<glyph name="partialdiff" format="1">
  <advance width="547"/>
  <unicode hex="2202"/>
  <outline>
    <contour>
      <point x="379" y="-11"/>
      <point x="478" y="144"/>
      <point x="478" y="310" type="curve" smooth="yes"/>
      <point x="478" y="484"/>
      <point x="391" y="573"/>
      <point x="221" y="573" type="curve"/>
      <point x="207" y="560"/>
      <point x="198" y="548"/>
      <point x="201" y="524" type="curve"/>
      <point x="333" y="524"/>
      <point x="383" y="430"/>
      <point x="384" y="306" type="curve"/>
      <point x="344" y="336"/>
      <point x="297" y="352"/>
      <point x="246" y="352" type="curve" smooth="yes"/>
      <point x="132" y="352"/>
      <point x="48" y="254"/>
      <point x="48" y="137" type="curve" smooth="yes"/>
      <point x="48" y="48"/>
      <point x="113" y="-11"/>
      <point x="214" y="-11" type="curve" smooth="yes"/>
    </contour>
    <contour>
      <point x="172" y="50"/>
      <point x="141" y="84"/>
      <point x="141" y="137" type="curve" smooth="yes"/>
      <point x="141" y="220"/>
      <point x="197" y="296"/>
      <point x="286" y="296" type="curve"/>
      <point x="322" y="286"/>
      <point x="354" y="269"/>
      <point x="380" y="246" type="curve"/>
      <point x="364" y="153"/>
      <point x="309" y="50"/>
      <point x="224" y="50" type="curve" smooth="yes"/>
    </contour>
  </outline>
</glyph>
<glyph name="uni2219" format="1">
  <advance width="338"/>
  <unicode hex="2219"/>
  <outline>
    <contour>
      <point x="216" y="177"/>
      <point x="257" y="218"/>
      <point x="295" y="265" type="curve"/>
      <point x="248" y="304"/>
      <point x="207" y="344"/>
      <point x="168" y="392" type="curve"/>
      <point x="121" y="353"/>
      <point x="81" y="312"/>
      <point x="42" y="265" type="curve"/>
      <point x="89" y="226"/>
      <point x="130" y="186"/>
      <point x="168" y="138" type="curve"/>
    </contour>
  </outline>
</glyph>
<glyph name="radical" format="1">
  <advance width="450"/>
  <unicode hex="221A"/>
  <outline>
    <contour>
      <point x="282" y="27" type="line"/>
      <point x="331" y="199"/>
      <point x="423" y="495"/>
      <point x="476" y="647" type="curve"/>
      <point x="440" y="647"/>
      <point x="414" y="644"/>
      <point x="385" y="636" type="curve"/>
      <point x="401" y="593"/>
      <point x="357" y="427"/>
      <point x="242" y="82" type="curve"/>
      <point x="222" y="127"/>
      <point x="205" y="204"/>
      <point x="178" y="333" type="curve"/>
      <point x="130" y="333"/>
      <point x="92" y="326"/>
      <point x="53" y="312" type="curve"/>
      <point x="135" y="171"/>
      <point x="127" y="-9"/>
      <point x="220" y="-9" type="curve"/>
    </contour>
  </outline>
</glyph>
<glyph name="infinity" format="1">
  <advance width="637"/>
  <unicode hex="221E"/>
  <outline>
    <contour>
      <point x="234" y="62"/>
      <point x="278" y="103"/>
      <point x="306" y="172" type="curve"/>
      <point x="329" y="112"/>
      <point x="365" y="62"/>
      <point x="442" y="62" type="curve" smooth="yes"/>
      <point x="526" y="62"/>
      <point x="584" y="153"/>
      <point x="584" y="282" type="curve" smooth="yes"/>
      <point x="584" y="389"/>
      <point x="532" y="461"/>
      <point x="453" y="461" type="curve" smooth="yes"/>
      <point x="403" y="461"/>
      <point x="360" y="422"/>
      <point x="334" y="359" type="curve"/>
      <point x="308" y="415"/>
      <point x="270" y="461"/>
      <point x="195" y="461" type="curve" smooth="yes"/>
      <point x="111" y="461"/>
      <point x="52" y="370"/>
      <point x="52" y="240" type="curve" smooth="yes"/>
      <point x="52" y="134"/>
      <point x="104" y="62"/>
      <point x="183" y="62" type="curve" smooth="yes"/>
    </contour>
    <contour>
      <point x="140" y="151"/>
      <point x="104" y="184"/>
      <point x="94" y="241" type="curve"/>
      <point x="94" y="316"/>
      <point x="125" y="371"/>
      <point x="177" y="371" type="curve" smooth="yes"/>
      <point x="243" y="371"/>
      <point x="263" y="299"/>
      <point x="289" y="223" type="curve"/>
      <point x="266" y="177"/>
      <point x="232" y="151"/>
      <point x="190" y="151" type="curve" smooth="yes"/>
    </contour>
    <contour>
      <point x="398" y="151"/>
      <point x="380" y="230"/>
      <point x="353" y="308" type="curve"/>
      <point x="376" y="348"/>
      <point x="408" y="371"/>
      <point x="447" y="371" type="curve" smooth="yes"/>
      <point x="497" y="371"/>
      <point x="533" y="338"/>
      <point x="543" y="281" type="curve"/>
      <point x="543" y="206"/>
      <point x="512" y="151"/>
      <point x="460" y="151" type="curve" smooth="yes"/>
    </contour>
  </outline>
</glyph>
<glyph name="f_f" format="1">
  <advance width="545"/>
  <outline>
    <contour>
      <point x="169" y="-77"/>
      <point x="193" y="-35"/>
      <point x="193" y="63" type="curve" smooth="yes"/>
      <point x="193" y="111"/>
      <point x="186" y="184"/>
      <point x="186" y="276" type="curve" smooth="yes"/>
      <point x="186" y="346" type="line"/>
      <point x="353" y="346" type="line"/>
      <point x="369" y="-43"/>
      <point x="365" y="-80"/>
      <point x="308" y="-149" type="curve"/>
      <point x="319" y="-159" type="line"/>
      <point x="424" y="-77"/>
      <point x="448" y="-35"/>
      <point x="448" y="63" type="curve" smooth="yes"/>
      <point x="448" y="111"/>
      <point x="441" y="184"/>
      <point x="441" y="276" type="curve" smooth="yes"/>
      <point x="441" y="346" type="line"/>
      <point x="481" y="345"/>
      <point x="508" y="341"/>
      <point x="530" y="334" type="curve"/>
      <point x="542" y="358"/>
      <point x="547" y="377"/>
      <point x="547" y="404" type="curve"/>
      <point x="524" y="400"/>
      <point x="488" y="397"/>
      <point x="443" y="396" type="curve"/>
      <point x="446" y="493"/>
      <point x="455" y="527"/>
      <point x="476" y="543" type="curve"/>
      <point x="503" y="544"/>
      <point x="551" y="518"/>
      <point x="590" y="482" type="curve"/>
      <point x="606" y="511"/>
      <point x="619" y="553"/>
      <point x="619" y="573" type="curve"/>
      <point x="591" y="581"/>
      <point x="559" y="585"/>
      <point x="526" y="585" type="curve" smooth="yes"/>
      <point x="488" y="585"/>
      <point x="453" y="572"/>
      <point x="426" y="549" type="curve"/>
      <point x="379" y="572"/>
      <point x="326" y="585"/>
      <point x="271" y="585" type="curve" smooth="yes"/>
      <point x="180" y="585"/>
      <point x="114" y="512"/>
      <point x="98" y="402" type="curve"/>
      <point x="81" y="389"/>
      <point x="62" y="379"/>
      <point x="41" y="368" type="curve"/>
      <point x="41" y="350"/>
      <point x="51" y="344"/>
      <point x="98" y="343" type="curve"/>
      <point x="114" y="-43"/>
      <point x="110" y="-80"/>
      <point x="53" y="-149" type="curve"/>
      <point x="64" y="-159" type="line"/>
    </contour>
    <contour>
      <point x="194" y="479"/>
      <point x="210" y="507"/>
      <point x="243" y="521" type="curve"/>
      <point x="398" y="521" type="line"/>
      <point x="374" y="489"/>
      <point x="358" y="446"/>
      <point x="352" y="397" type="curve"/>
      <point x="188" y="397" type="line"/>
    </contour>
  </outline>
</glyph>
<glyph name="f_f_i" format="1">
  <advance width="791"/>
  <outline>
    <contour>
      <point x="169" y="-77"/>
      <point x="193" y="-35"/>
      <point x="193" y="63" type="curve" smooth="yes"/>
      <point x="193" y="111"/>
      <point x="186" y="184"/>
      <point x="186" y="276" type="curve" smooth="yes"/>
      <point x="186" y="346" type="line"/>
      <point x="365" y="346" type="line"/>
      <point x="381" y="-43"/>
      <point x="376" y="-80"/>
      <point x="320" y="-149" type="curve"/>
      <point x="332" y="-159" type="line"/>
      <point x="435" y="-77"/>
      <point x="459" y="-35"/>
      <point x="459" y="63" type="curve" smooth="yes"/>
      <point x="459" y="111"/>
      <point x="452" y="184"/>
      <point x="452" y="276" type="curve" smooth="yes"/>
      <point x="452" y="346" type="line"/>
      <point x="627" y="346" type="line"/>
      <point x="628" y="323"/>
      <point x="629" y="297"/>
      <point x="629" y="272" type="curve" smooth="yes"/>
      <point x="629" y="208"/>
      <point x="625" y="144"/>
      <point x="625" y="73" type="curve" smooth="yes"/>
      <point x="625" y="10"/>
      <point x="640" y="-9"/>
      <point x="679" y="-9" type="curve" smooth="yes"/>
      <point x="696" y="-9"/>
      <point x="725" y="0"/>
      <point x="748" y="27" type="curve"/>
      <point x="717" y="61"/>
      <point x="709" y="84"/>
      <point x="709" y="192" type="curve" smooth="yes"/>
      <point x="709" y="294"/>
      <point x="714" y="379"/>
      <point x="721" y="417" type="curve"/>
      <point x="686" y="417"/>
      <point x="655" y="413"/>
      <point x="620" y="397" type="curve"/>
      <point x="454" y="397" type="line"/>
      <point x="457" y="493"/>
      <point x="467" y="527"/>
      <point x="488" y="543" type="curve"/>
      <point x="525" y="544"/>
      <point x="590" y="514"/>
      <point x="643" y="470" type="curve"/>
      <point x="659" y="499"/>
      <point x="670" y="541"/>
      <point x="670" y="561" type="curve"/>
      <point x="631" y="576"/>
      <point x="586" y="585"/>
      <point x="538" y="585" type="curve" smooth="yes"/>
      <point x="497" y="585"/>
      <point x="462" y="571"/>
      <point x="433" y="545" type="curve"/>
      <point x="385" y="571"/>
      <point x="330" y="585"/>
      <point x="271" y="585" type="curve" smooth="yes"/>
      <point x="180" y="585"/>
      <point x="114" y="512"/>
      <point x="98" y="402" type="curve"/>
      <point x="81" y="389"/>
      <point x="62" y="379"/>
      <point x="41" y="368" type="curve"/>
      <point x="41" y="350"/>
      <point x="51" y="344"/>
      <point x="98" y="343" type="curve"/>
      <point x="114" y="-43"/>
      <point x="110" y="-80"/>
      <point x="53" y="-149" type="curve"/>
      <point x="64" y="-159" type="line"/>
    </contour>
    <contour>
      <point x="194" y="479"/>
      <point x="210" y="507"/>
      <point x="243" y="521" type="curve"/>
      <point x="410" y="521" type="line"/>
      <point x="386" y="489"/>
      <point x="370" y="446"/>
      <point x="363" y="397" type="curve"/>
      <point x="188" y="397" type="line"/>
    </contour>
  </outline>
</glyph>
<glyph name="five.dnom" format="1">
  <advance width="348"/>
  <outline>
    <contour>
      <point x="241" y="-6"/>
      <point x="285" y="26"/>
      <point x="285" y="85" type="curve" smooth="yes"/>
      <point x="285" y="135"/>
      <point x="240" y="172"/>
      <point x="187" y="172" type="curve" smooth="yes"/>
      <point x="158" y="172"/>
      <point x="131" y="164"/>
      <point x="109" y="149" type="curve"/>
      <point x="114" y="211" type="line"/>
      <point x="200" y="211" type="line" smooth="yes"/>
      <point x="230" y="211"/>
      <point x="246" y="209"/>
      <point x="258" y="202" type="curve"/>
      <point x="267" y="220"/>
      <point x="273" y="250"/>
      <point x="273" y="274" type="curve"/>
      <point x="255" y="270"/>
      <point x="216" y="268"/>
      <point x="172" y="268" type="curve" smooth="yes"/>
      <point x="128" y="268"/>
      <point x="104" y="270"/>
      <point x="90" y="274" type="curve"/>
      <point x="78" y="126" type="line"/>
      <point x="107" y="112" type="line"/>
      <point x="133" y="129"/>
      <point x="158" y="138"/>
      <point x="175" y="138" type="curve"/>
      <point x="209" y="126"/>
      <point x="222" y="111"/>
      <point x="222" y="85" type="curve" smooth="yes"/>
      <point x="222" y="51"/>
      <point x="196" y="31"/>
      <point x="151" y="31" type="curve" smooth="yes"/>
      <point x="117" y="31"/>
      <point x="86" y="43"/>
      <point x="68" y="63" type="curve"/>
      <point x="62" y="48"/>
      <point x="59" y="36"/>
      <point x="59" y="18" type="curve"/>
      <point x="87" y="3"/>
      <point x="121" y="-6"/>
      <point x="158" y="-6" type="curve" smooth="yes"/>
    </contour>
  </outline>
</glyph>
<glyph name="nine.dnom" format="1">
  <advance width="346"/>
  <outline>
    <contour>
      <point x="240" y="-6"/>
      <point x="292" y="51"/>
      <point x="292" y="152" type="curve" smooth="yes"/>
      <point x="292" y="227"/>
      <point x="243" y="277"/>
      <point x="169" y="277" type="curve" smooth="yes"/>
      <point x="102" y="277"/>
      <point x="54" y="235"/>
      <point x="54" y="176" type="curve" smooth="yes"/>
      <point x="54" y="121"/>
      <point x="93" y="85"/>
      <point x="151" y="85" type="curve" smooth="yes"/>
      <point x="178" y="85"/>
      <point x="203" y="93"/>
      <point x="226" y="110" type="curve"/>
      <point x="221" y="57"/>
      <point x="194" y="32"/>
      <point x="146" y="32" type="curve" smooth="yes"/>
      <point x="111" y="32"/>
      <point x="81" y="44"/>
      <point x="65" y="63" type="curve"/>
      <point x="58" y="44"/>
      <point x="56" y="33"/>
      <point x="56" y="18" type="curve"/>
      <point x="82" y="2"/>
      <point x="114" y="-6"/>
      <point x="144" y="-6" type="curve" smooth="yes"/>
    </contour>
    <contour>
      <point x="142" y="122"/>
      <point x="120" y="144"/>
      <point x="120" y="178" type="curve" smooth="yes"/>
      <point x="120" y="211"/>
      <point x="140" y="233"/>
      <point x="170" y="233" type="curve" smooth="yes"/>
      <point x="204" y="233"/>
      <point x="224" y="203"/>
      <point x="226" y="147" type="curve"/>
      <point x="212" y="135"/>
      <point x="195" y="127"/>
      <point x="177" y="122" type="curve"/>
    </contour>
  </outline>
</glyph>
<glyph name="one.dnom" format="1">
  <advance width="348"/>
  <outline>
    <contour>
      <point x="211" y="-3"/>
      <point x="224" y="-2"/>
      <point x="236" y="0" type="curve"/>
      <point x="231" y="52"/>
      <point x="229" y="104"/>
      <point x="229" y="157" type="curve" smooth="yes"/>
      <point x="229" y="196"/>
      <point x="230" y="235"/>
      <point x="233" y="274" type="curve"/>
      <point x="219" y="276"/>
      <point x="207" y="277"/>
      <point x="195" y="277" type="curve"/>
      <point x="180" y="259"/>
      <point x="116" y="223"/>
      <point x="81" y="205" type="curve"/>
      <point x="86" y="191"/>
      <point x="93" y="176"/>
      <point x="104" y="164" type="curve"/>
      <point x="169" y="201" type="line"/>
      <point x="169" y="152" type="line" smooth="yes"/>
      <point x="169" y="102"/>
      <point x="166" y="37"/>
      <point x="163" y="0" type="curve"/>
      <point x="177" y="-2"/>
      <point x="189" y="-3"/>
      <point x="200" y="-3" type="curve" smooth="yes"/>
    </contour>
  </outline>
</glyph>
<glyph name="seven.dnom" format="1">
  <advance width="347"/>
  <outline>
    <contour>
      <point x="275" y="200" type="line" smooth="yes"/>
      <point x="285" y="218"/>
      <point x="288" y="232"/>
      <point x="288" y="250" type="curve" smooth="yes"/>
      <point x="288" y="257"/>
      <point x="284" y="273"/>
      <point x="271" y="284" type="curve"/>
      <point x="251" y="273"/>
      <point x="221" y="268"/>
      <point x="170" y="268" type="curve" smooth="yes"/>
      <point x="123" y="268"/>
      <point x="80" y="270"/>
      <point x="59" y="274" type="curve"/>
      <point x="59" y="251"/>
      <point x="65" y="221"/>
      <point x="73" y="202" type="curve"/>
      <point x="86" y="209"/>
      <point x="103" y="211"/>
      <point x="131" y="211" type="curve" smooth="yes"/>
      <point x="233" y="211" type="line"/>
      <point x="170" y="106"/>
      <point x="109" y="41"/>
      <point x="81" y="13" type="curve"/>
      <point x="104" y="1"/>
      <point x="127" y="-3"/>
      <point x="157" y="-3" type="curve"/>
    </contour>
  </outline>
</glyph>
<glyph name="two.dnom" format="1">
  <advance width="348"/>
  <outline>
    <contour>
      <point x="287" y="8"/>
      <point x="291" y="38"/>
      <point x="291" y="64" type="curve"/>
      <point x="268" y="56"/>
      <point x="228" y="51"/>
      <point x="189" y="51" type="curve" smooth="yes"/>
      <point x="175" y="51"/>
      <point x="157" y="52"/>
      <point x="141" y="54" type="curve"/>
      <point x="231" y="109"/>
      <point x="277" y="162"/>
      <point x="277" y="208" type="curve" smooth="yes"/>
      <point x="277" y="251"/>
      <point x="235" y="277"/>
      <point x="168" y="277" type="curve" smooth="yes"/>
      <point x="135" y="277"/>
      <point x="93" y="270"/>
      <point x="56" y="260" type="curve"/>
      <point x="56" y="237"/>
      <point x="67" y="206"/>
      <point x="79" y="192" type="curve"/>
      <point x="117" y="217"/>
      <point x="154" y="235"/>
      <point x="176" y="239" type="curve"/>
      <point x="201" y="237"/>
      <point x="214" y="224"/>
      <point x="214" y="205" type="curve" smooth="yes"/>
      <point x="214" y="160"/>
      <point x="162" y="102"/>
      <point x="52" y="22" type="curve"/>
      <point x="52" y="0" type="line"/>
      <point x="125" y="3"/>
      <point x="260" y="2"/>
      <point x="280" y="-3" type="curve"/>
    </contour>
  </outline>
</glyph>
<glyph name="zero.dnom" format="1">
  <advance width="348"/>
  <outline>
    <contour>
      <point x="254" y="-6"/>
      <point x="317" y="56"/>
      <point x="317" y="145" type="curve" smooth="yes"/>
      <point x="317" y="224"/>
      <point x="265" y="277"/>
      <point x="188" y="277" type="curve" smooth="yes"/>
      <point x="95" y="277"/>
      <point x="30" y="216"/>
      <point x="30" y="130" type="curve" smooth="yes"/>
      <point x="30" y="49"/>
      <point x="83" y="-6"/>
      <point x="163" y="-6" type="curve" smooth="yes"/>
    </contour>
    <contour>
      <point x="127" y="46"/>
      <point x="97" y="84"/>
      <point x="97" y="144" type="curve" smooth="yes"/>
      <point x="97" y="201"/>
      <point x="133" y="242"/>
      <point x="181" y="242" type="curve"/>
      <point x="224" y="234"/>
      <point x="251" y="196"/>
      <point x="251" y="141" type="curve" smooth="yes"/>
      <point x="251" y="82"/>
      <point x="220" y="46"/>
      <point x="172" y="46" type="curve" smooth="yes"/>
    </contour>
  </outline>
</glyph>
